 <svg  version="1.0" xmlns="http://www.w3.org/2000/svg"  width="300.000000pt" height="314.000000pt" viewBox="0 0 300.000000 314.000000"  preserveAspectRatio="xMidYMid meet">  <g transform="translate(0.000000,314.000000) scale(0.100000,-0.100000)" fill="#00fbff" stroke="none"> <path d="M1105 3035 c7 -34 38 -115 45 -115 4 0 13 -14 20 -30 23 -56 31 -44 28 45 -1 48 -6 89 -10 91 -5 3 -8 -7 -9 -23 0 -15 -5 -37 -10 -48 -6 -14 -8 -4 -4 35 3 43 2 48 -4 22 -12 -45 -25 -55 -16 -12 7 33 6 34 -9 15 -15 -20 -15 -19 -9 4 4 16 2 22 -5 18 -5 -4 -12 -4 -15 0 -2 5 -3 4 -2 -2z m82 -122 c-3 -10 -5 -2 -5 17 0 19 2 27 5 18 2 -10 2 -26 0 -35z"/> <path d="M930 3035 c0 -8 61 -37 67 -31 3 2 -9 12 -26 20 -31 17 -41 19 -41 11z"/> <path d="M1212 2930 c0 -80 2 -89 9 -54 6 24 6 62 0 95 -8 51 -9 49 -9 -41z"/> <path d="M955 2990 c9 -14 65 -42 65 -32 0 5 -16 16 -36 25 -19 10 -33 13 -29 7z"/> <path d="M1093 2971 c6 -17 14 -31 18 -31 11 0 -2 38 -16 50 -11 10 -12 6 -2 -19z"/> <path d="M1247 2980 c-3 -8 -8 -53 -11 -100 -4 -61 -3 -81 5 -70 8 11 9 7 5 -18 -4 -20 -2 -31 4 -27 6 3 10 0 10 -7 1 -9 3 -9 9 2 12 22 33 141 27 148 -3 3 -6 -3 -7 -14 0 -15 -2 -14 -11 6 -6 14 -14 41 -18 60 -4 22 -9 29 -13 20z m17 -102 c-3 -4 0 -8 5 -8 6 0 10 -12 10 -27 -1 -18 -3 -21 -6 -10 -2 9 -9 15 -14 12 -5 -4 -9 11 -9 32 0 27 3 34 9 23 6 -8 7 -18 5 -22z"/> <path d="M980 2935 c0 -2 18 -14 40 -25 48 -25 53 -18 8 10 -33 20 -48 25 -48 15z"/> <path d="M1321 2863 c0 -6 -4 -20 -7 -30 -5 -14 -4 -15 5 -7 7 7 11 20 8 30 -3 11 -5 14 -6 7z"/> <path d="M1021 2846 c14 -13 109 -55 109 -48 0 9 -84 52 -102 52 -6 0 -9 -2 -7 -4z"/> <path d="M1321 2729 c-6 -18 -11 -37 -10 -43 0 -6 7 7 15 28 8 22 12 41 10 43 -2 2 -9 -10 -15 -28z"/> <path d="M1374 2716 c-3 -14 -1 -32 4 -42 8 -15 12 -13 27 17 l18 34 -22 -20 -22 -19 10 27 c7 17 7 27 1 27 -5 0 -12 -11 -16 -24z"/> <path d="M1922 2699 c-45 -17 -80 -34 -77 -38 2 -5 42 1 87 11 46 11 117 22 158 26 88 8 80 21 -17 28 -58 4 -80 0 -151 -27z"/> <path d="M1433 2701 c6 -23 -60 -208 -70 -198 -2 3 3 22 11 42 20 46 20 56 1 31 -8 -11 -15 -14 -15 -8 0 7 -4 12 -10 12 -13 0 -6 -101 13 -200 8 -41 18 -110 22 -152 4 -43 10 -78 15 -78 13 0 32 28 22 34 -5 3 -10 35 -11 72 -1 37 -6 90 -12 117 -13 73 -12 102 4 88 16 -13 27 -5 27 20 0 9 16 58 36 109 19 51 33 97 31 103 -3 7 -10 -3 -17 -20 -7 -18 -16 -33 -20 -33 -4 0 -11 -12 -14 -26 -4 -15 -9 -24 -11 -22 -2 2 2 24 9 49 12 39 12 47 -1 64 -15 19 -15 19 -10 -4z"/> <path d="M1097 2646 c33 -24 71 -49 84 -56 13 -7 48 -35 78 -64 53 -50 54 -50 26 -11 -16 22 -50 57 -77 78 -49 38 -62 65 -16 33 12 -9 27 -16 32 -16 21 0 -38 33 -63 36 -14 1 -30 10 -37 18 -13 18 -29 22 -18 4 4 -6 -3 -4 -17 5 -13 9 -30 17 -37 17 -8 0 13 -20 45 -44z"/> <path d="M1150 2682 c0 -5 16 -16 36 -25 19 -10 33 -13 29 -7 -9 14 -65 42 -65 32z"/> <path d="M1401 2646 c-6 -16 -10 -31 -7 -33 7 -8 28 37 23 50 -3 7 -10 -1 -16 -17z"/> <path d="M1870 2642 c-61 -19 -125 -51 -117 -59 3 -2 15 0 26 7 12 6 21 7 21 2 0 -4 -16 -16 -36 -25 -28 -14 -34 -21 -29 -38 5 -16 3 -20 -10 -17 -10 2 -22 -6 -29 -16 -6 -11 -19 -29 -28 -40 -19 -21 -25 -96 -8 -96 10 0 26 47 22 68 -2 6 9 17 23 22 34 13 32 14 37 -20 4 -23 -1 -33 -18 -45 -15 -10 -22 -22 -19 -35 2 -12 5 -44 6 -71 2 -44 5 -50 23 -47 14 2 24 15 32 43 9 33 15 40 37 42 15 1 27 -1 27 -4 0 -15 -74 -113 -85 -113 -22 0 -51 -44 -50 -75 1 -18 -8 -43 -23 -64 -14 -19 -20 -31 -14 -27 17 11 15 -5 -5 -26 -9 -10 -12 -18 -6 -18 5 0 34 40 63 88 28 49 64 103 79 120 15 17 39 47 52 66 13 20 27 36 31 36 20 0 37 32 28 54 -4 13 -11 70 -13 127 -3 66 -2 84 3 49 l7 -55 1 45 c4 90 12 116 41 127 44 18 -6 14 -69 -5z m25 -31 c-2 -5 -17 -6 -32 -3 l-28 6 25 6 c27 7 43 3 35 -9z m-10 -240 c5 -38 4 -52 -4 -47 -6 4 -12 33 -13 64 l-1 57 -7 -60 c-5 -49 -7 -38 -9 65 -1 83 -5 118 -11 103 -5 -12 -15 -25 -23 -30 -10 -5 -13 -17 -10 -35 6 -34 23 -27 23 9 0 15 3 24 6 21 3 -4 2 -39 -2 -80 -7 -63 -9 -68 -15 -38 -6 31 -7 28 -8 -20 -1 -40 -4 -51 -11 -40 -5 8 -10 29 -11 45 -1 30 -1 30 -10 5 -7 -19 -8 -14 -5 22 2 26 0 45 -5 42 -5 -3 -9 12 -9 32 0 21 3 34 7 31 11 -11 32 14 26 30 -5 13 -2 15 15 11 12 -4 20 -2 17 2 -3 5 5 16 17 25 l23 15 6 -87 c3 -49 9 -112 14 -142z m-145 -11 c0 12 3 11 11 -3 8 -13 7 -33 -1 -69 -10 -41 -15 -47 -22 -34 -12 21 -2 69 12 61 6 -3 10 1 10 9 0 10 -6 13 -15 10 -11 -5 -15 1 -14 22 0 25 1 26 9 9 6 -14 9 -15 10 -5z m-20 -235 c-7 -9 -15 -13 -18 -10 -3 2 1 11 8 20 7 9 15 13 18 10 3 -2 -1 -11 -8 -20z"/> <path d="M1347 2643 c-10 -9 -9 -23 2 -23 5 0 11 7 15 15 5 15 -5 20 -17 8z"/> <path d="M1916 2555 c-3 -30 -4 -81 -2 -112 4 -45 3 -50 -3 -23 -5 19 -9 26 -10 15 -1 -32 11 -95 19 -95 4 0 17 51 29 113 12 61 24 123 27 135 3 15 1 21 -6 17 -5 -3 -10 -21 -11 -38 -1 -31 -1 -31 -10 -7 -6 18 -8 10 -4 -30 2 -36 1 -46 -4 -30 l-8 25 -5 -30 c-3 -16 -3 3 -1 43 6 85 -1 96 -11 17z"/> <path d="M1994 2585 c-4 -16 -8 -47 -7 -69 0 -27 -2 -34 -9 -25 -6 9 -7 4 -2 -16 4 -16 8 -46 7 -65 0 -19 2 -27 4 -17 3 9 9 15 14 12 12 -8 11 2 -2 27 -10 19 3 89 29 157 3 9 1 12 -5 8 -6 -4 -13 -1 -16 5 -2 7 -8 0 -13 -17z"/> <path d="M2170 2603 c-8 -2 -30 -31 -47 -66 -29 -54 -31 -63 -18 -76 13 -13 20 -9 60 35 25 27 41 50 35 52 -5 2 -3 14 6 28 9 13 14 24 10 24 -3 0 -27 -32 -52 -70 -54 -80 -71 -88 -24 -11 17 28 28 56 24 62 -4 7 -3 9 4 5 6 -3 14 -1 17 5 9 13 4 16 -15 12z"/> <path d="M1120 2589 c0 -8 7 -10 27 -8 14 1 20 -36 9 -50 -8 -11 -8 -13 1 -8 6 4 15 2 19 -4 4 -8 3 -9 -4 -5 -7 4 -12 2 -12 -5 0 -7 -15 0 -32 17 -32 28 -32 28 -9 2 15 -17 19 -28 12 -28 -11 0 -11 -3 -2 -14 8 -10 9 -16 1 -21 -6 -3 -40 14 -75 40 -36 25 -65 42 -65 36 0 -6 8 -15 18 -20 16 -10 15 -10 -3 -11 -19 -1 -19 -2 3 -12 12 -6 22 -15 22 -19 0 -5 23 -15 52 -24 62 -18 61 -18 52 -4 -5 8 -1 8 14 0 36 -19 33 -28 -11 -26 -23 2 -55 3 -71 4 -19 1 -27 5 -23 15 4 9 -7 17 -32 25 -57 17 -70 13 -41 -10 14 -11 20 -18 14 -15 -6 3 -17 -5 -24 -18 -7 -13 -24 -29 -37 -35 -14 -7 -23 -15 -19 -18 3 -3 28 8 55 25 42 26 52 28 62 16 9 -11 8 -14 -6 -14 -25 0 -96 -59 -94 -79 5 -50 -12 -55 -37 -12 -10 17 -21 28 -25 25 -4 -2 -29 18 -56 44 -45 45 -81 72 -99 72 -4 0 3 -12 17 -26 23 -25 23 -26 2 -15 -12 6 -25 16 -28 21 -3 6 -11 10 -17 10 -17 0 75 -94 93 -95 21 -2 109 -72 109 -86 0 -6 6 -7 13 -3 6 4 9 4 6 0 -4 -4 8 -22 27 -40 19 -18 34 -37 34 -42 0 -6 -23 -7 -52 -4 -37 4 -69 0 -107 -12 -67 -22 -77 -22 -105 0 l-23 17 38 1 c21 1 50 9 65 19 19 12 29 14 37 6 18 -18 43 -12 57 14 12 22 11 27 -5 45 -10 12 -25 18 -32 15 -7 -3 -20 -8 -29 -11 -12 -5 -14 -1 -8 20 5 21 2 27 -17 35 -13 5 -41 23 -63 40 -21 17 -46 31 -55 31 -11 0 -10 -4 7 -16 12 -8 19 -20 16 -26 -5 -7 -1 -9 9 -5 10 4 22 -1 30 -13 8 -11 17 -18 20 -15 4 3 5 2 2 -1 -2 -4 6 -15 18 -25 27 -23 15 -25 -19 -3 -41 28 -37 10 6 -22 22 -16 40 -31 40 -34 0 -17 -47 -5 -82 21 -23 16 -37 29 -32 29 10 1 -55 36 -104 57 -20 8 -31 10 -27 3 4 -7 -3 -9 -22 -5 l-28 5 30 -15 30 -16 -30 5 -30 5 32 -14 c24 -11 39 -12 58 -5 38 14 44 12 15 -6 -14 -8 -17 -13 -7 -10 9 3 25 9 35 12 14 5 14 3 -3 -11 -20 -17 -20 -17 1 -11 13 4 26 1 34 -9 15 -18 12 -18 -115 16 -64 17 -119 25 -87 12 6 -2 9 -9 6 -15 -5 -7 2 -9 20 -6 14 3 26 2 26 -2 0 -4 21 -11 46 -15 33 -5 43 -10 36 -17 -8 -8 -36 -8 -91 -2 -88 11 -115 -1 -52 -23 44 -15 54 -16 46 -3 -3 6 -1 10 4 10 17 0 13 -18 -7 -30 -13 -8 -8 -9 23 -4 22 4 44 10 49 15 6 5 18 9 29 9 10 0 16 4 12 9 -3 6 7 6 27 1 48 -14 52 -25 9 -25 -45 0 -72 -20 -96 -71 -11 -23 -22 -34 -33 -32 -27 4 -57 -24 -69 -64 -13 -43 1 -52 19 -13 6 13 15 22 19 19 5 -3 7 1 4 8 -3 7 3 18 14 25 18 11 18 10 8 -23 -6 -19 -8 -36 -6 -39 3 -2 27 2 54 9 28 7 43 15 35 18 -8 3 -3 4 12 2 15 -2 32 3 40 13 12 15 9 16 -24 10 -22 -3 -40 -1 -44 5 -4 6 11 9 42 7 35 -2 61 3 89 18 105 54 194 65 262 31 l43 -21 -110 -110 c-61 -60 -109 -112 -107 -114 2 -2 36 26 76 63 39 36 71 62 71 58 0 -5 -21 -27 -47 -51 -25 -24 -43 -46 -38 -50 4 -5 10 -2 12 5 3 7 22 21 44 32 21 11 49 35 61 53 16 22 29 32 43 29 12 -2 16 0 9 5 -19 14 -26 60 -9 67 8 3 17 0 21 -6 5 -7 2 -8 -7 -3 -8 4 -7 0 3 -10 27 -29 33 -10 9 31 -12 20 -27 69 -33 110 -6 41 -15 74 -20 74 -4 0 -8 8 -8 18 -1 15 -2 15 -10 1 -5 -9 -5 -32 1 -58 5 -24 8 -49 6 -55 -3 -6 -8 3 -12 19 -4 17 -11 41 -16 55 l-9 25 4 -27 c1 -15 -1 -25 -5 -22 -18 11 -8 38 28 78 43 47 97 86 119 86 17 0 117 -80 110 -88 -3 -2 -28 10 -55 27 -28 17 -51 27 -51 23 0 -4 23 -20 50 -35 28 -16 50 -32 50 -37 0 -5 9 -14 19 -19 16 -9 18 -8 14 9 -8 30 4 55 20 42 7 -6 19 -7 26 -3 9 6 10 11 2 15 -12 8 -15 26 -3 26 7 0 32 -48 32 -63 0 -4 -5 -5 -10 -2 -6 4 -7 11 -4 17 4 7 2 8 -4 4 -7 -4 -1 -22 19 -52 26 -37 59 -144 59 -188 0 -12 -60 56 -60 69 0 6 -18 23 -40 39 -41 30 -58 56 -37 56 20 0 -32 31 -61 36 -26 5 -26 5 -7 -10 16 -13 16 -15 3 -10 -23 8 -44 -14 -57 -62 -15 -53 -13 -67 4 -24 12 30 14 32 14 11 1 -23 2 -23 19 -8 10 10 22 17 27 17 11 0 -2 -84 -14 -88 -6 -2 -11 -9 -11 -15 0 -6 -7 -19 -17 -29 -9 -11 -11 -18 -5 -18 7 0 12 -9 12 -21 0 -11 5 -19 12 -17 6 2 28 -14 50 -36 21 -23 35 -33 32 -23 -3 9 -11 17 -16 17 -6 0 -7 7 -4 15 4 10 -3 20 -19 27 -14 6 -25 18 -25 27 0 14 -2 14 -10 1 -8 -12 -10 -11 -10 7 0 12 4 25 10 28 5 3 15 25 21 48 10 35 13 39 20 22 6 -16 8 -17 8 -3 1 9 -4 20 -10 23 -6 4 -8 13 -5 20 3 8 -6 18 -22 24 -15 5 -22 10 -15 10 7 1 10 8 6 18 -7 19 -3 17 75 -35 28 -19 52 -39 52 -44 0 -4 9 -17 19 -27 11 -11 27 -36 36 -55 10 -20 22 -35 28 -33 20 6 48 -32 41 -57 -3 -15 1 -29 11 -40 10 -10 14 -24 10 -36 -5 -14 -2 -20 9 -20 22 0 20 -10 -18 -103 -36 -88 -60 -176 -30 -108 12 27 18 31 25 20 6 -10 9 -6 10 16 1 17 2 36 2 43 -1 17 14 15 21 -4 8 -20 -21 -87 -34 -79 -10 6 -12 0 -14 -43 -1 -12 -7 -27 -15 -32 -12 -7 -12 -11 -2 -23 8 -10 8 -16 1 -19 -6 -2 4 -12 21 -22 27 -16 31 -16 26 -3 -3 9 1 18 11 22 10 4 13 9 6 13 -6 4 -14 14 -18 22 -3 9 -5 6 -2 -7 2 -13 -2 -24 -11 -27 -8 -3 -12 -2 -9 3 3 5 -2 12 -11 15 -14 6 -11 11 15 37 17 17 29 36 26 43 -3 7 2 19 11 26 8 7 15 24 15 37 0 17 4 23 14 20 8 -3 18 5 25 19 10 22 9 23 -8 12 -15 -9 -23 -9 -34 0 -12 10 -12 18 -2 49 10 29 10 46 -1 86 -7 27 -18 55 -23 60 -6 6 -11 26 -11 45 0 18 -4 31 -9 27 -15 -9 -20 6 -35 109 -9 61 -22 106 -35 124 -13 19 -17 33 -11 42 6 9 4 20 -5 30 -8 9 -16 26 -18 38 -2 13 -13 29 -24 37 -18 13 -20 22 -14 54 1 2 9 -3 19 -10 14 -11 13 -10 -2 9 -11 12 -24 22 -30 22 -6 0 -4 -5 4 -10 8 -5 10 -10 4 -10 -6 0 -21 12 -35 27 -22 25 -22 26 -1 9 42 -36 22 0 -28 49 -47 46 -80 64 -80 44z m119 -165 c30 -55 26 -79 -7 -46 -10 10 -26 21 -35 25 -10 4 -16 10 -15 14 1 4 -2 20 -6 35 -4 15 -5 32 -1 38 10 17 30 -4 64 -66z m-6 -66 c15 -11 27 -24 27 -30 0 -6 -9 -3 -19 6 -11 10 -25 15 -32 10 -7 -4 -10 -3 -5 4 3 5 -10 20 -29 32 -19 12 -35 24 -35 26 0 6 59 -25 93 -48z m-655 -37 c11 -6 10 -10 -4 -15 -9 -3 -19 -4 -22 -1 -3 3 1 5 9 5 11 0 11 2 -1 10 -8 5 -10 10 -5 10 6 0 16 -4 23 -9z m282 -78 c0 -5 -4 -14 -9 -22 -8 -12 -12 -12 -25 -2 -23 19 -20 31 9 31 14 0 25 -3 25 -7z m-127 -21 c39 -26 22 -35 -19 -10 -19 11 -34 22 -34 24 0 10 27 2 53 -14z m-103 -82 c-12 -17 -26 -27 -32 -24 -7 4 -8 2 -4 -4 4 -7 28 -12 54 -13 37 0 43 -2 25 -9 -28 -11 -93 -1 -93 15 0 16 46 65 60 65 6 0 2 -14 -10 -30z m68 -15 c2 -2 -11 -5 -28 -7 -21 -3 -30 0 -30 9 0 10 8 11 28 7 15 -4 28 -8 30 -9z"/> <path d="M1472 2531 c-18 -39 -32 -76 -32 -81 0 -6 -5 -10 -12 -10 -6 0 -8 -3 -5 -6 4 -4 17 0 31 9 22 15 25 15 30 1 3 -9 4 -20 1 -24 -3 -5 0 -12 6 -16 9 -5 10 2 5 26 -3 19 -3 30 1 26 9 -8 33 69 33 107 0 16 -4 26 -9 23 -5 -4 -11 -1 -13 5 -2 7 -18 -20 -36 -60z"/> <path d="M2096 2582 c-4 -12 -12 -20 -17 -16 -5 3 -18 -14 -28 -38 -23 -50 -28 -34 -7 17 8 19 12 35 8 35 -4 0 -17 -29 -30 -64 -18 -54 -20 -69 -10 -91 10 -22 13 -23 20 -10 5 8 7 25 3 38 -6 22 -6 22 8 -1 l13 -23 12 23 c12 23 12 23 6 1 -4 -18 -2 -22 10 -17 19 7 20 13 1 38 -16 21 -20 40 -7 32 5 -3 18 15 30 40 13 25 18 43 13 40 -5 -4 -11 0 -14 6 -2 8 -7 3 -11 -10z m-13 -42 c3 -11 1 -18 -4 -14 -5 3 -10 -1 -10 -8 -1 -7 -3 -20 -4 -28 -1 -8 -3 -22 -4 -30 -1 -13 -3 -13 -11 1 -6 11 -4 30 7 58 9 22 17 41 18 41 2 0 5 -9 8 -20z m-57 -79 c-1 -17 -5 -26 -9 -21 -5 4 -6 17 -2 29 9 29 12 26 11 -8z"/> <path d="M2359 2584 c-7 -9 -40 -37 -74 -62 -33 -25 -62 -47 -64 -49 -12 -9 9 -12 30 -4 27 10 99 73 99 86 0 4 8 14 17 21 10 7 15 15 12 18 -3 4 -12 -1 -20 -10z"/> <path d="M1572 2559 c-2 -32 -30 -76 -33 -53 -1 5 -5 -9 -9 -31 -5 -22 -11 -50 -15 -63 -7 -20 -5 -21 16 -13 20 7 23 14 21 43 -2 23 3 41 13 52 11 11 15 28 12 58 -3 41 -4 42 -5 7z"/> <path d="M1965 2437 c4 -19 2 -26 -5 -22 -5 3 -10 0 -10 -9 0 -8 -3 -21 -6 -30 -4 -10 -1 -16 9 -16 18 0 30 67 16 89 -8 12 -9 9 -4 -12z"/> <path d="M2160 2412 c19 -8 71 -23 115 -34 44 -11 82 -24 85 -28 3 -5 30 -17 60 -28 30 -11 69 -25 87 -33 18 -7 35 -10 39 -7 10 11 -57 87 -80 90 -11 2 -21 10 -21 18 -1 8 -6 14 -12 13 -7 -2 -24 4 -39 12 -36 18 -43 11 -18 -17 14 -16 10 -15 -15 5 -28 23 -40 27 -75 23 -23 -3 -50 -8 -61 -12 -10 -4 -16 -3 -13 2 3 5 -15 9 -41 10 l-46 1 35 -15z"/> <path d="M600 2382 c33 -22 90 -83 90 -96 0 -6 19 -21 43 -34 l42 -23 -39 35 c-33 28 -38 37 -27 49 9 12 9 17 0 23 -8 4 -9 3 -5 -4 10 -17 -9 -15 -23 1 -6 8 -7 18 -3 22 4 5 1 5 -6 1 -8 -5 -27 3 -47 18 -18 14 -37 26 -42 25 -4 0 3 -8 17 -17z"/> <path d="M1600 2394 c0 -5 -24 -9 -54 -9 -30 0 -52 -3 -49 -8 3 -5 14 -7 24 -4 26 7 53 -31 37 -50 -6 -8 -21 -12 -32 -9 -12 3 -27 1 -35 -3 -9 -6 -4 -10 18 -13 22 -3 37 1 52 15 16 15 23 17 32 8 9 -9 9 -14 -1 -20 -16 -9 -13 -89 3 -81 6 3 9 13 8 23 -2 9 2 17 7 17 6 0 10 -28 10 -62 0 -76 8 -108 25 -108 14 0 9 36 -7 57 -6 7 -5 20 2 33 9 16 9 25 1 33 -14 14 -14 77 -1 111 5 14 6 26 1 26 -5 0 -7 10 -4 23 3 15 -1 12 -13 -10 -20 -39 -30 -42 -36 -8 -3 13 -2 22 3 20 10 -6 23 14 15 22 -3 4 -6 2 -6 -3z"/> <path d="M2122 2385 c9 -9 190 -56 195 -51 3 3 -15 10 -38 16 -24 6 -66 18 -93 26 -52 15 -73 18 -64 9z"/> <path d="M2074 2362 c19 -8 19 -9 1 -15 -10 -4 -15 -10 -12 -13 3 -3 13 0 24 6 17 11 75 0 237 -47 10 -3 16 -1 13 5 -4 5 -28 15 -54 22 -27 6 -61 17 -77 23 -15 6 -40 11 -55 12 -14 1 -42 5 -61 8 -22 4 -28 4 -16 -1z"/> <path d="M1508 2343 c12 -2 20 -9 17 -14 -4 -5 1 -9 9 -9 9 0 16 4 16 9 0 11 -26 21 -48 20 -10 -1 -8 -4 6 -6z"/> <path d="M1986 2331 c-3 -5 -16 -7 -29 -4 -21 4 -22 4 -3 -11 23 -18 42 -20 51 -6 3 6 12 10 18 10 8 0 7 -4 -2 -9 -11 -7 -6 -12 20 -19 38 -10 52 -6 29 8 -11 7 -11 10 -2 10 7 0 17 -10 22 -22 5 -13 9 -17 9 -10 1 15 67 16 77 1 5 -9 -3 -10 -29 -5 -19 4 -38 3 -41 -2 -9 -15 -64 -12 -70 4 -3 9 -16 14 -28 13 -13 -1 -30 1 -38 4 -32 11 -60 15 -54 6 3 -5 -5 -13 -18 -18 -13 -6 -19 -10 -14 -10 5 -1 -2 -10 -15 -22 l-24 -21 155 5 c97 3 174 11 205 20 28 9 41 16 30 17 -20 1 -20 1 0 10 18 8 17 9 -7 9 -15 1 -34 8 -43 17 -10 10 -27 15 -44 12 -22 -3 -28 -1 -23 10 4 12 1 12 -17 3 -15 -9 -32 -9 -59 -1 -45 12 -49 12 -56 1z m-11 -51 c3 -6 17 -8 31 -6 13 3 24 1 24 -4 0 -10 -35 -23 -68 -25 -20 -1 -21 1 -8 11 23 16 20 22 -11 17 -24 -3 -25 -2 -8 6 27 13 33 13 40 1z"/> <path d="M1034 2220 c0 -52 1 -74 3 -47 2 26 2 68 0 95 -2 26 -3 4 -3 -48z"/> <path d="M1065 2288 c-3 -13 -7 -54 -9 -91 -2 -38 -6 -71 -9 -74 -8 -7 3 -33 13 -33 5 0 9 8 9 18 0 17 17 117 27 162 4 17 2 22 -5 15 -5 -5 -12 -23 -14 -40 -2 -16 -3 -9 -1 18 3 50 -2 62 -11 25z"/> <path d="M430 2260 c8 -5 30 -10 49 -10 45 0 37 6 -19 14 -31 4 -40 3 -30 -4z"/> <path d="M1490 2250 c0 -5 3 -9 8 -9 23 4 35 -5 48 -36 8 -19 19 -35 24 -35 6 0 10 -4 10 -10 0 -5 -7 -7 -15 -4 -11 4 -13 2 -9 -9 4 -10 0 -15 -13 -14 -12 1 -19 -6 -21 -20 -4 -27 0 -28 38 -8 26 13 30 21 30 56 0 32 -4 42 -20 46 -11 3 -20 12 -20 20 0 8 5 11 10 8 6 -3 10 1 10 11 0 12 -3 14 -13 6 -8 -7 -18 -7 -27 -2 -20 13 -40 12 -40 0z"/> <path d="M1460 2213 c0 -39 -10 -64 -26 -66 -5 0 -14 -6 -21 -13 -10 -9 -9 -15 4 -26 11 -9 17 -10 20 -2 2 6 10 20 19 30 14 18 15 18 12 -6 -2 -33 11 -72 23 -64 5 3 7 15 3 26 -4 15 -3 19 7 14 8 -4 6 -1 -3 7 -22 17 -23 31 -3 23 9 -3 15 0 15 10 0 8 -7 17 -15 20 -10 4 -15 20 -15 45 0 21 -4 39 -10 39 -5 0 -10 -17 -10 -37z"/> <path d="M1500 2211 c0 -12 6 -21 15 -21 8 0 15 4 15 9 0 5 -7 14 -15 21 -13 10 -15 9 -15 -9z"/> <path d="M1791 2174 c-23 -26 -41 -52 -41 -59 0 -7 -7 -18 -15 -25 -8 -7 -15 -17 -15 -23 0 -6 6 -3 14 8 9 13 20 16 37 12 23 -6 23 -5 5 9 -15 10 -17 17 -9 25 13 13 33 4 33 -17 0 -8 5 -14 11 -14 6 0 9 -14 7 -32 -2 -24 -8 -33 -20 -32 -10 1 -15 -2 -12 -7 3 -5 0 -9 -6 -9 -6 0 -13 14 -17 30 -6 33 -11 34 -18 2 -2 -12 6 -28 21 -41 14 -12 21 -27 18 -36 -5 -13 -1 -15 22 -11 16 3 59 8 97 11 37 4 70 11 73 16 11 19 43 8 68 -23 15 -18 31 -38 36 -45 6 -7 10 -16 10 -21 0 -13 34 -11 42 2 12 17 9 26 -7 26 -8 0 -15 -5 -15 -11 0 -17 -21 1 -32 29 -5 15 -12 43 -15 62 -3 19 -12 47 -19 63 -8 15 -12 27 -8 27 3 0 -1 11 -10 25 -24 36 -20 43 27 53 30 7 35 10 16 11 -80 3 -106 -21 -76 -70 10 -17 10 -23 0 -26 -19 -7 -16 -23 3 -23 13 0 14 -3 4 -15 -7 -8 -16 -12 -21 -9 -5 3 -9 0 -9 -7 0 -6 8 -9 19 -6 14 3 18 1 14 -9 -3 -9 -13 -12 -25 -8 -12 3 -18 2 -15 -3 3 -5 -25 -10 -66 -11 -40 -1 -73 -6 -75 -11 -4 -13 -32 -2 -32 13 0 6 9 17 20 23 15 10 22 10 34 -2 17 -17 42 -20 51 -5 4 6 11 7 17 4 6 -4 8 -2 4 4 -3 6 -2 13 4 17 5 3 10 11 10 17 0 6 -9 3 -19 -6 -22 -20 -61 -18 -71 4 -37 73 -42 89 -37 104 4 9 15 19 24 23 10 4 24 12 30 19 7 7 24 11 38 10 14 -2 25 1 25 5 0 5 -20 9 -44 9 -40 0 -48 -4 -85 -46z"/> <path d="M2045 2210 c-27 -4 -65 -5 -84 -2 -23 3 -32 2 -28 -6 4 -5 17 -8 30 -5 18 4 19 3 7 -6 -13 -9 -12 -11 6 -11 31 0 137 21 154 31 18 10 -10 10 -85 -1z"/> <path d="M410 2190 l-25 -8 27 -1 c15 -1 30 4 33 9 7 11 0 11 -35 0z"/> <path d="M464 2151 c-37 -17 -66 -41 -49 -41 12 0 84 40 90 50 8 13 7 13 -41 -9z"/> <path d="M1107 2138 c-3 -10 -4 -25 -1 -33 8 -20 -3 -48 -16 -40 -8 5 -7 12 2 23 12 16 11 16 -7 2 -11 -8 -21 -15 -23 -16 -2 -1 5 -10 15 -20 13 -13 14 -19 5 -22 -18 -6 5 -32 27 -32 15 1 15 2 0 13 -17 13 -15 33 7 57 8 10 10 27 5 50 -5 26 -9 31 -14 18z"/> <path d="M1130 2130 c0 -11 5 -20 10 -20 6 0 10 9 10 20 0 11 -4 20 -10 20 -5 0 -10 -9 -10 -20z"/> <path d="M2570 2062 c0 -55 -4 -82 -12 -85 -10 -3 -10 -9 -2 -24 13 -21 7 -76 -7 -67 -5 3 -9 39 -9 80 0 47 -4 74 -11 74 -11 0 -9 -33 8 -174 5 -48 6 -49 19 -25 7 13 14 38 14 54 1 26 3 27 10 10 8 -19 9 -19 9 2 1 12 6 25 11 28 6 3 10 17 10 29 0 13 7 29 15 36 8 7 14 27 14 44 -1 17 -3 23 -6 14 -7 -29 -33 -8 -33 27 0 18 -7 38 -15 45 -13 11 -15 2 -15 -68z"/> <path d="M1214 2080 c-1 -53 10 -58 21 -9 5 21 3 36 -6 45 -12 11 -14 5 -15 -36z"/> <path d="M1596 2102 c-5 -18 -5 -36 -2 -39 7 -7 19 43 13 59 -2 7 -7 -2 -11 -20z"/> <path d="M910 2095 c13 -14 31 -25 39 -25 11 0 6 8 -14 25 -39 32 -55 32 -25 0z"/> <path d="M2064 2111 c4 -6 22 -18 39 -27 30 -14 31 -14 12 1 -30 25 -59 39 -51 26z"/> <path d="M1393 2096 c4 -10 7 -27 7 -37 0 -11 5 -17 10 -14 6 3 13 -1 16 -9 9 -24 20 -19 19 8 0 14 -12 34 -29 47 -25 20 -29 21 -23 5z"/> <path d="M1557 2079 c-10 -15 -22 -49 -26 -75 -5 -27 -12 -58 -16 -68 -6 -14 -5 -17 3 -12 7 4 12 14 12 22 0 8 4 12 10 9 5 -3 28 -1 51 5 38 11 41 13 36 40 -4 16 -2 30 4 32 12 4 1 38 -13 38 -6 0 -8 -9 -5 -21 4 -13 0 -22 -11 -26 -13 -6 -13 -8 4 -14 17 -6 17 -8 2 -14 -10 -4 -24 1 -36 13 -18 18 -18 22 -5 35 8 8 13 25 11 38 l-3 24 -18 -26z"/> <path d="M1255 2044 c-8 -47 -2 -52 11 -8 6 19 8 37 4 39 -4 3 -11 -11 -15 -31z"/> <path d="M1179 2068 c-7 -24 -5 -38 7 -38 8 0 14 9 14 20 0 11 -4 20 -10 20 -5 0 -10 -1 -11 -2z"/> <path d="M1700 2035 c-13 -16 -3 -20 24 -9 9 3 13 10 10 15 -8 13 -20 11 -34 -6z"/> <path d="M833 2029 c-6 -6 -21 -16 -34 -23 -35 -18 -61 -60 -63 -105 -1 -22 1 -41 5 -41 10 0 41 89 34 100 -3 5 1 10 9 10 8 0 20 9 26 21 7 11 14 18 17 15 4 -3 12 -1 19 5 8 7 14 7 19 -1 8 -13 -4 -32 -16 -24 -10 6 -48 -34 -48 -51 0 -5 9 1 19 14 11 13 20 20 20 15 0 -4 11 3 25 16 19 18 22 26 13 32 -10 6 -10 10 2 18 12 8 10 10 -10 10 -15 0 -31 -5 -37 -11z"/> <path d="M2105 2010 c10 -11 20 -18 23 -15 7 6 -18 35 -31 35 -5 0 -2 -9 8 -20z"/> <path d="M2446 1993 c-4 -18 -12 -33 -17 -33 -5 0 -9 -7 -9 -16 0 -8 -4 -12 -10 -9 -5 3 -12 -6 -16 -20 -3 -14 -13 -25 -23 -25 -14 0 -14 -2 -1 -10 13 -8 8 -14 -11 -12 -3 1 -15 -31 -27 -71 -22 -77 -21 -76 41 17 45 68 57 69 57 8 0 -44 -5 -55 -35 -88 -19 -20 -35 -43 -35 -50 0 -21 -24 -22 -47 -2 -18 17 -24 18 -45 7 -12 -7 -30 -13 -38 -14 -20 0 -45 -54 -32 -67 7 -7 13 1 17 26 4 20 11 36 16 36 12 0 11 -5 -6 -46 -8 -20 -12 -41 -9 -46 4 -7 -6 -9 -27 -6 -56 8 -232 48 -256 58 -29 12 -31 34 -2 25 13 -4 27 -1 39 10 14 13 23 14 38 6 17 -9 26 -6 50 14 40 34 65 32 79 -5 6 -16 16 -30 22 -30 18 0 79 103 102 172 12 37 26 65 30 62 12 -7 11 -34 -1 -34 -5 0 -9 -3 -8 -7 1 -5 -4 -21 -10 -36 -7 -15 -15 -40 -19 -55 -6 -24 -5 -26 10 -14 9 8 20 11 26 8 5 -3 16 15 25 41 19 55 19 53 6 53 -5 0 -10 -6 -10 -14 0 -8 -4 -18 -10 -21 -5 -3 -3 13 5 36 18 49 18 52 5 44 -5 -3 -10 -4 -10 0 0 3 12 10 27 16 21 8 24 12 13 19 -29 18 -71 -21 -102 -95 -9 -22 -17 -35 -17 -29 -1 6 6 28 14 48 16 39 10 45 -21 21 -19 -15 -19 -15 0 -8 16 5 18 3 12 -13 -4 -10 -21 -56 -38 -101 -16 -46 -32 -83 -35 -83 -5 0 2 35 14 66 5 14 3 16 -11 11 -13 -5 -17 -3 -14 5 24 63 39 120 34 125 -3 4 -6 1 -6 -5 0 -7 -7 -12 -15 -12 -8 0 -15 5 -15 12 0 7 -5 6 -12 -4 -17 -21 -68 -33 -68 -16 0 9 -2 10 -8 2 -4 -6 -22 -15 -39 -19 -39 -8 -49 -21 -33 -40 6 -8 8 -20 4 -27 -6 -10 -3 -9 9 1 18 14 24 36 7 26 -5 -3 -10 -4 -10 -1 0 3 10 10 21 17 15 8 19 8 15 0 -4 -6 -3 -11 2 -11 6 0 13 7 16 16 3 8 14 14 23 12 10 -1 24 1 31 5 18 12 15 -15 -4 -39 -14 -17 -15 -17 -10 -1 12 39 -12 5 -29 -40 -19 -51 -35 -76 -35 -54 0 7 -5 9 -10 6 -6 -4 -3 12 6 35 9 22 14 43 11 47 -3 3 -9 -7 -13 -21 -4 -16 -12 -25 -19 -23 -22 9 -40 -11 -37 -43 2 -17 -1 -30 -7 -30 -6 0 -11 9 -11 19 0 11 -5 23 -11 26 -7 5 -5 13 5 24 9 10 13 21 9 26 -5 4 -3 5 3 2 7 -4 15 0 18 9 9 24 7 31 -5 14 -10 -13 -10 -13 -6 1 3 9 2 31 -3 50 -7 28 -8 30 -9 9 -2 -28 -24 -63 -34 -53 -4 3 -7 1 -7 -4 0 -6 5 -13 11 -15 7 -2 7 -11 0 -28 -8 -22 -10 -22 -11 -5 -1 20 -1 20 -12 1 -9 -16 -7 -23 12 -38 32 -26 19 -33 -24 -13 -34 16 -41 45 -10 45 17 0 17 5 2 30 -9 15 -10 23 -2 28 6 4 7 17 3 32 -6 22 -7 23 -8 4 -1 -12 -8 -24 -16 -27 -10 -5 -14 -20 -12 -57 2 -41 7 -55 27 -70 32 -24 20 -37 -14 -15 -14 9 -29 17 -33 17 -4 0 -7 5 -5 10 2 6 0 18 -4 27 -5 13 -8 11 -15 -9 -5 -17 -7 -5 -6 40 1 66 -5 90 -25 90 -6 0 -6 -6 2 -15 17 -20 5 -32 -15 -15 -13 10 -15 9 -15 -8 0 -12 -4 -24 -10 -27 -6 -4 -10 5 -10 20 l0 26 -23 -25 c-13 -14 -28 -22 -33 -18 -4 4 12 -15 36 -42 67 -72 196 -129 395 -175 219 -49 324 -61 400 -44 27 6 25 8 -30 19 l-60 12 80 3 c59 2 67 4 33 6 -27 2 -48 9 -48 15 0 6 12 8 28 6 15 -3 50 -2 77 3 l50 8 -54 -3 c-61 -4 -93 2 -85 15 3 5 36 9 74 9 54 0 69 3 74 16 4 9 5 18 4 19 -11 7 -231 -18 -262 -30 -50 -21 -56 -13 -12 15 28 17 36 28 36 51 0 21 4 27 15 23 11 -5 15 1 16 22 l1 29 8 -25 c8 -25 8 -25 10 5 2 29 2 29 9 5 14 -50 18 5 12 150 -5 104 -9 136 -15 113z m-303 -195 c-15 -45 -29 -65 -38 -57 -9 10 27 99 40 99 10 0 10 -9 -2 -42z m-373 -68 c0 -59 -15 -66 -24 -12 -9 54 -8 62 9 62 11 0 15 -12 15 -50z m519 -92 c-7 -44 -25 -75 -37 -63 -6 5 31 115 38 115 4 0 3 -23 -1 -52z m25 -22 c-3 -14 -10 -26 -15 -26 -4 0 -3 14 3 31 12 36 22 33 12 -5z m116 -35 c0 -20 -51 -42 -83 -35 -32 7 -31 7 23 24 30 10 56 18 58 19 1 1 2 -3 2 -8z"/> <path d="M1367 1996 c-3 -8 -2 -18 3 -21 13 -8 20 9 11 24 -6 10 -10 9 -14 -3z"/> <path d="M1685 2001 c3 -2 -1 -11 -8 -19 -10 -13 -9 -14 10 -4 30 17 37 31 14 29 -11 -1 -18 -3 -16 -6z"/> <path d="M2691 1991 c-18 -14 -21 -20 -11 -26 9 -6 11 -4 5 6 -8 12 -6 12 8 1 9 -8 22 -10 28 -6 8 5 9 3 4 -5 -6 -10 -3 -11 14 -1 24 12 19 32 -7 28 -9 -2 -16 3 -14 10 3 15 2 15 -27 -7z"/> <path d="M560 1975 c-14 -8 -20 -14 -15 -14 6 0 21 6 35 14 14 8 21 14 15 14 -5 0 -21 -6 -35 -14z"/> <path d="M1041 1981 c-8 -5 -20 -7 -27 -4 -6 2 -15 -1 -20 -8 -5 -9 -2 -10 9 -6 9 3 19 2 22 -3 3 -4 -1 -11 -7 -13 -7 -3 -8 -6 -2 -6 5 -1 20 8 32 20 19 17 23 18 28 5 3 -9 10 -13 16 -10 5 3 1 12 -9 20 -21 16 -24 16 -42 5z"/> <path d="M1110 1974 c0 -16 9 -18 28 -5 10 6 9 10 -7 14 -14 3 -21 0 -21 -9z"/> <path d="M2472 1945 c0 -27 3 -88 7 -135 l8 -85 1 115 c0 63 -3 124 -8 135 -6 15 -9 7 -8 -30z"/> <path d="M1612 1935 c-11 -14 -22 -21 -24 -15 -5 17 -58 -6 -58 -24 0 -10 6 -13 15 -10 11 5 15 -1 15 -22 -1 -27 -2 -27 -14 -11 -12 15 -14 16 -20 2 -6 -17 11 -52 30 -59 11 -4 22 28 29 77 1 10 17 33 35 52 19 19 29 35 23 35 -6 0 -20 -11 -31 -25z"/> <path d="M2655 1950 c-3 -5 -3 -11 2 -11 4 -1 13 -2 18 -3 6 0 10 -4 10 -8 0 -3 11 -19 25 -34 14 -15 18 -24 10 -19 -27 15 -50 38 -45 45 3 5 -3 7 -12 5 -10 -2 -21 -4 -25 -4 -5 -1 -8 -6 -8 -12 0 -6 9 -8 23 -4 21 6 21 5 3 -6 -30 -18 -96 -92 -96 -107 0 -7 16 -20 35 -28 50 -21 67 -17 20 5 -41 20 -44 29 -3 11 17 -8 38 -5 83 9 40 13 48 18 25 15 -36 -5 -100 25 -100 47 0 6 7 3 16 -5 22 -22 31 -20 10 3 -16 17 -16 19 0 25 9 3 23 1 31 -5 17 -14 9 -25 -10 -13 -7 5 -4 1 6 -8 13 -13 15 -18 6 -18 -10 -1 -9 -3 2 -10 22 -13 88 8 67 21 -10 7 -8 9 6 9 11 0 17 3 13 6 -3 3 -15 3 -28 -1 -17 -6 -19 -9 -8 -16 12 -7 11 -9 -1 -9 -39 0 -39 17 0 35 36 16 44 28 39 61 0 4 4 10 11 14 6 4 -6 7 -27 7 -21 0 -50 3 -65 7 -15 3 -30 2 -33 -4z m90 -30 c4 0 3 4 0 10 -4 6 1 7 11 3 11 -4 13 -8 6 -11 -7 -2 -10 -8 -7 -13 4 -5 -2 -6 -12 -2 -16 6 -17 5 -3 -12 15 -18 14 -18 -14 0 -16 11 -23 21 -17 23 8 3 6 9 -6 19 -14 12 -12 11 9 -1 15 -9 30 -16 33 -16z m-49 -41 c19 -22 19 -22 -3 -10 -13 6 -23 16 -23 21 0 15 5 12 26 -11z m-37 -91 c-15 -6 -30 -3 -45 7 -28 18 -31 27 -7 18 11 -4 14 -3 9 5 -4 7 8 5 29 -5 34 -16 35 -18 14 -25z"/> <path d="M907 1884 c-53 -58 -68 -85 -28 -50 9 7 38 26 65 41 l49 29 -18 -27 c-9 -15 -33 -36 -52 -48 -61 -38 -27 -32 46 8 72 38 85 52 54 54 -14 0 -13 2 5 9 28 12 28 17 -3 22 -13 3 -22 1 -19 -3 6 -11 -8 -12 -31 -3 -12 5 -13 9 -5 14 7 4 8 10 4 13 -5 3 -35 -24 -67 -59z"/> <path d="M1987 1935 c2 -8 11 -11 19 -8 16 6 11 16 -11 19 -8 1 -11 -4 -8 -11z"/> <path d="M1167 1926 c-8 -8 -24 -12 -42 -9 -21 5 -26 3 -20 -7 5 -8 20 -10 47 -6 22 4 48 2 61 -5 21 -11 21 -11 -2 15 -29 31 -26 30 -44 12z"/> <path d="M1774 1929 c-3 -5 21 -9 52 -9 32 0 55 2 53 4 -10 8 -100 13 -105 5z"/> <path d="M2507 1920 c-8 -28 -8 -162 0 -142 2 6 8 10 12 8 4 -3 5 25 3 62 -4 90 -7 101 -15 72z"/> <path d="M1668 1920 c12 -6 22 -18 22 -30 0 -15 7 -20 25 -20 25 0 35 23 15 35 -5 3 -10 -1 -10 -9 0 -9 -5 -16 -12 -16 -6 0 -8 3 -5 6 12 13 -14 44 -36 43 l-22 0 23 -9z"/> <path d="M1385 1908 c2 -7 6 -33 9 -57 3 -24 9 -47 12 -50 4 -3 4 16 0 43 -3 27 -6 55 -6 62 0 8 -4 14 -10 14 -5 0 -8 -6 -5 -12z"/> <path d="M1509 1882 c-3 -20 -2 -29 4 -23 5 5 7 19 5 32 -3 20 -5 19 -9 -9z"/> <path d="M1654 1896 c-6 -17 2 -36 17 -36 12 0 12 37 -1 45 -6 3 -13 -1 -16 -9z"/> <path d="M1770 1887 c0 -9 18 -11 66 -9 36 2 64 5 62 6 -2 2 -31 6 -65 9 -47 5 -63 3 -63 -6z"/> <path d="M1050 1873 c0 -5 -18 -19 -40 -32 -46 -26 -55 -47 -10 -25 16 9 34 13 40 9 5 -3 10 -2 10 3 0 5 9 12 20 15 11 3 20 11 20 18 0 7 -3 9 -7 6 -3 -4 -12 -2 -20 4 -7 6 -13 7 -13 2z"/> <path d="M1600 1848 c-26 -43 -25 -56 2 -32 12 10 18 13 14 7 -4 -8 -1 -13 8 -13 11 0 13 6 6 29 -4 16 -6 32 -2 35 3 3 2 6 -1 6 -4 0 -16 -15 -27 -32z"/> <path d="M1680 1850 c-14 -3 -26 -11 -27 -17 -3 -15 13 -17 22 -3 3 6 22 10 42 10 20 0 33 3 29 7 -8 9 -35 10 -66 3z"/> <path d="M1760 1851 c0 -5 11 -8 25 -8 14 0 28 3 31 8 3 5 -9 9 -25 9 -17 0 -31 -4 -31 -9z"/> <path d="M1490 1828 c0 -7 5 -20 10 -28 8 -12 10 -11 10 7 0 12 -4 25 -10 28 -5 3 -10 0 -10 -7z"/> <path d="M1068 1825 c-3 -3 -16 -8 -28 -10 -25 -5 -60 -33 -60 -47 0 -5 5 -6 12 -2 7 4 22 8 34 9 18 0 21 -2 11 -13 -15 -19 -17 -60 -3 -71 6 -4 21 -11 33 -13 18 -5 22 -1 25 21 3 27 31 36 56 18 7 -6 12 -6 12 1 0 5 -14 15 -30 21 -26 9 -34 7 -50 -9 -11 -11 -20 -23 -19 -26 0 -3 -2 -8 -5 -11 -3 -3 -3 5 0 18 3 13 6 38 8 54 2 17 7 38 11 48 7 17 4 22 -7 12z"/> <path d="M1799 1778 c4 -50 5 -51 11 -20 8 34 3 72 -9 72 -3 0 -4 -24 -2 -52z"/> <path d="M1635 1803 c-11 -2 -30 -9 -42 -15 -13 -6 -26 -8 -30 -5 -3 4 -12 2 -20 -4 -7 -6 -13 -8 -13 -3 -1 9 -30 -54 -30 -64 0 -3 5 -1 11 5 6 6 18 9 27 5 12 -4 14 -1 9 12 -5 12 -3 16 5 13 7 -2 21 2 30 10 9 9 32 18 49 22 18 4 34 12 37 19 4 12 1 13 -33 5z"/> <path d="M357 1745 c3 -33 9 -64 14 -70 9 -9 5 24 -12 95 -6 25 -6 18 -2 -25z"/> <path d="M2512 1735 c-19 -24 -31 -49 -27 -55 3 -5 -2 -10 -13 -10 -11 0 -22 -6 -25 -14 -3 -8 -16 -17 -29 -20 -13 -2 4 -3 37 0 107 8 155 16 150 24 -3 4 26 19 63 33 78 30 69 33 -48 12 -100 -18 -120 -18 -120 -5 0 6 11 8 27 4 27 -7 27 -7 10 11 -25 24 -13 31 18 11 15 -10 32 -15 38 -13 7 2 -3 12 -21 21 -19 10 -32 20 -29 22 3 3 23 -4 44 -15 51 -26 123 -20 116 10 -4 15 0 19 18 19 12 0 20 3 17 6 -3 3 -23 2 -44 -2 -31 -6 -35 -9 -19 -14 16 -6 13 -8 -16 -14 -37 -7 -82 4 -94 23 -10 18 -18 13 -53 -34z"/> <path d="M1620 1740 c0 -13 7 -20 20 -20 23 0 26 10 8 28 -18 18 -28 15 -28 -8z"/> <path d="M1574 1733 c-15 -16 -15 -18 9 -39 15 -12 29 -35 32 -51 6 -25 5 -26 -8 -10 -19 22 -27 22 -27 -3 0 -25 -9 -25 -26 -2 -12 16 -13 16 -14 -4 0 -12 -8 -25 -17 -28 -10 -4 -13 -10 -8 -14 19 -13 35 -75 24 -88 -7 -8 -7 -14 1 -19 5 -3 10 0 10 7 1 7 8 1 16 -14 8 -16 16 -28 17 -28 2 0 1 16 -1 35 -3 26 2 42 22 66 18 21 26 42 26 67 0 58 9 80 30 75 21 -6 32 -79 18 -127 -13 -50 11 -14 27 39 13 42 13 46 0 35 -19 -16 -19 -1 0 27 14 19 13 22 -12 38 -18 12 -38 16 -69 12 -53 -6 -60 0 -31 24 12 10 17 18 10 19 -6 0 -19 -8 -29 -17z m34 -154 c-1 -13 -7 -23 -13 -22 -13 3 -18 30 -11 50 10 24 29 1 24 -28z m-33 -39 c-3 -6 -11 -10 -16 -10 -6 0 -8 4 -4 9 3 5 1 12 -4 15 -5 3 -7 16 -4 27 6 21 7 21 20 -5 8 -15 11 -31 8 -36z"/> <path d="M1168 1683 c-1 -32 -2 -98 -3 -146 0 -73 -3 -91 -17 -101 -10 -7 -18 -20 -18 -29 0 -13 7 -12 43 8 38 22 43 29 54 82 l12 58 -3 -56 c-2 -53 -1 -56 16 -46 11 8 18 25 19 47 l1 35 7 -30 7 -30 14 23 c8 12 20 22 26 22 7 0 15 7 18 16 3 8 2 12 -4 9 -5 -3 -18 -1 -28 4 -13 7 -22 7 -30 -1 -9 -9 -12 -8 -12 4 0 21 -14 30 -34 22 -9 -4 -16 -18 -16 -34 0 -50 -12 -90 -27 -90 -13 0 -13 2 -2 17 9 11 9 14 2 10 -9 -6 -11 8 -6 58 5 52 3 65 -8 65 -12 0 -12 2 0 9 15 9 25 81 11 81 -4 0 -6 8 -3 19 3 10 0 22 -6 25 -7 5 -12 -12 -13 -51z"/> <path d="M465 1707 c-4 -9 -5 -31 -3 -47 3 -22 0 -30 -11 -31 -11 0 -9 -3 5 -9 22 -9 52 -90 39 -109 -3 -6 -22 -11 -41 -11 -20 0 -45 -5 -56 -11 -13 -7 -23 -7 -27 -2 -3 6 -13 13 -21 16 -8 3 21 6 65 7 44 1 72 4 62 7 -9 2 -15 9 -12 14 4 5 -22 9 -59 9 -62 0 -66 -1 -72 -26 -4 -14 -16 -30 -28 -35 -16 -7 -13 -9 17 -5 22 3 35 1 32 -5 -4 -5 -14 -9 -23 -9 -21 0 -102 -33 -102 -42 0 -7 115 18 133 29 15 9 106 10 100 1 -2 -5 -1 -8 2 -8 13 0 50 55 47 69 -2 7 1 17 7 21 8 4 5 25 -8 66 -10 32 -23 75 -29 94 -7 28 -11 32 -17 17z m-10 -227 c-3 -5 -15 -10 -26 -10 -10 0 -19 5 -19 10 0 6 12 10 26 10 14 0 23 -4 19 -10z"/> <path d="M1102 1699 c1 -13 -3 -39 -7 -56 -5 -22 -4 -33 3 -33 15 0 27 89 14 102 -7 7 -10 3 -10 -13z"/> <path d="M1215 1715 c23 -8 85 -10 85 -3 0 4 -21 8 -47 7 -27 0 -43 -2 -38 -4z"/> <path d="M883 1695 c0 -8 4 -12 9 -9 4 3 8 1 8 -4 0 -4 15 -16 33 -25 28 -14 29 -16 10 -16 -13 -1 -23 4 -23 9 0 6 -4 10 -10 10 -17 0 -11 -20 8 -26 9 -3 24 -9 33 -14 14 -7 18 -3 21 21 3 18 0 29 -7 29 -7 0 -24 9 -38 20 -30 24 -44 25 -44 5z"/> <path d="M1310 1684 c0 -16 -4 -23 -11 -18 -7 4 -10 1 -7 -6 10 -30 28 -21 28 14 0 20 -2 36 -5 36 -3 0 -5 -12 -5 -26z"/> <path d="M526 1676 c5 -19 2 -31 -7 -38 -11 -8 -11 -9 3 -5 13 5 19 -5 28 -44 10 -42 10 -53 -4 -74 -19 -28 -21 -55 -5 -55 6 0 8 7 5 16 -3 9 0 25 8 36 14 19 14 19 21 -11 3 -17 3 -36 -1 -42 -5 -8 -3 -9 6 -4 10 6 12 3 8 -13 -6 -22 4 -34 34 -45 12 -4 15 -2 11 9 -3 9 1 14 13 14 9 0 15 -3 11 -6 -6 -7 23 -44 36 -44 4 0 3 9 -3 20 -8 16 -8 20 3 20 8 0 20 -7 27 -15 7 -8 20 -15 29 -15 12 1 10 4 -7 13 -12 7 -19 16 -15 20 4 4 -3 10 -15 14 -12 3 -22 11 -22 18 0 7 -6 18 -14 24 -8 6 -16 21 -19 33 -5 18 -1 16 23 -10 18 -20 39 -32 54 -32 14 0 28 -4 31 -10 3 -5 1 -10 -5 -10 -8 0 -7 -6 1 -21 6 -12 8 -30 6 -41 -4 -13 1 -22 16 -28 19 -8 18 -9 -11 -9 -20 -1 -31 3 -27 9 3 6 -1 10 -9 10 -10 0 -13 -6 -9 -16 5 -14 1 -16 -30 -10 -23 4 -37 3 -37 -3 0 -7 -9 -7 -22 -3 -26 9 -58 5 -58 -8 0 -4 -9 -6 -19 -3 -10 3 -32 -3 -47 -12 -16 -9 -22 -14 -14 -12 8 2 26 8 40 12 l25 7 -22 -17 c-13 -9 -40 -22 -60 -29 -33 -11 -38 -17 -40 -47 l-2 -34 14 35 13 35 1 -40 c1 -22 6 -47 12 -55 8 -11 9 0 6 43 -2 36 0 57 7 57 6 0 34 12 61 25 28 14 64 25 80 24 17 0 23 -3 15 -5 -56 -19 -90 -38 -78 -46 8 -4 -4 -8 -29 -8 l-43 0 1 -67 c1 -38 4 -58 6 -46 2 12 11 27 19 33 8 7 14 19 14 27 0 8 5 11 10 8 6 -3 10 0 10 8 0 8 7 20 15 27 8 7 13 16 10 20 -7 11 51 30 89 29 28 0 26 -2 -16 -15 -48 -15 -68 -32 -25 -21 22 6 22 6 -2 -12 -19 -14 -20 -19 -8 -24 17 -6 60 20 52 32 -2 5 13 11 35 15 21 3 42 11 46 18 5 7 2 9 -9 5 -14 -5 -15 -3 -5 18 6 14 18 25 25 25 8 0 12 -4 9 -9 -10 -16 81 -20 150 -6 88 19 82 20 87 -12 4 -27 4 -27 6 3 1 32 15 44 52 44 13 0 19 -7 20 -22 1 -19 2 -20 6 -4 5 17 13 18 95 14 53 -3 85 -2 77 3 -9 6 6 9 40 9 30 0 51 3 48 7 -4 3 -70 5 -147 4 -90 -1 -140 2 -140 8 0 6 -6 8 -13 5 -9 -3 -17 9 -24 33 l-10 38 0 -42 c0 -24 5 -43 10 -43 6 0 8 -3 5 -6 -12 -11 -70 28 -90 61 -17 31 -21 33 -35 20 -13 -14 -27 -19 -44 -17 -4 1 -15 -8 -24 -18 -29 -32 -35 -23 -19 31 9 28 13 54 9 57 -9 9 -24 -18 -31 -58 -9 -55 -17 -69 -22 -36 -8 60 38 164 54 122 3 -9 14 -16 23 -16 25 -1 54 -27 46 -42 -6 -10 -5 -10 4 -2 17 16 -3 54 -27 54 -10 0 -27 8 -38 19 -13 12 -30 17 -50 14 -24 -4 -38 3 -79 41 -27 25 -50 44 -53 42 -5 -6 40 -66 50 -66 4 0 8 -7 8 -16 0 -11 6 -14 20 -9 11 4 20 2 20 -4 0 -6 -9 -11 -20 -11 -14 0 -20 -7 -20 -22 0 -21 0 -21 -26 3 -14 13 -39 47 -55 76 -17 29 -35 56 -41 59 -7 5 -8 2 -4 -7 4 -8 -11 6 -34 31 -39 42 -41 43 -34 16z m104 -165 c-1 -13 -4 -12 -15 3 -8 11 -15 27 -15 35 1 13 4 12 15 -3 8 -11 15 -27 15 -35z m0 -77 c0 -24 -18 -24 -24 0 -3 13 -9 32 -13 43 -5 14 -1 12 15 -6 12 -13 22 -30 22 -37z m295 -50 c13 -14 14 -19 3 -25 -17 -12 -98 -11 -98 0 0 7 49 33 77 40 1 1 9 -6 18 -15z"/> <path d="M1491 1683 c-1 -13 -10 -32 -22 -44 -15 -15 -19 -28 -15 -45 4 -14 11 -22 16 -19 15 9 12 -5 -11 -71 -19 -52 -26 -120 -14 -133 7 -6 37 22 45 44 7 16 9 12 10 -20 1 -22 4 -51 7 -65 3 -14 7 -41 7 -60 1 -19 6 -38 11 -42 6 -5 5 -8 -2 -8 -7 0 -10 -7 -6 -16 3 -9 0 -20 -8 -24 -7 -5 -10 -13 -5 -17 5 -4 11 -2 13 5 3 6 9 10 14 7 5 -3 7 24 4 62 -12 191 -16 218 -32 231 -9 6 -12 12 -6 12 20 0 21 27 3 67 -15 35 -16 45 -5 78 9 23 10 45 5 59 -9 21 -9 21 -9 -1z"/> <path d="M1127 1629 c-28 -108 -40 -193 -28 -197 7 -2 5 -9 -4 -19 -8 -8 -13 -19 -9 -24 9 -15 34 18 34 46 0 14 3 24 8 22 4 -3 6 18 6 46 -2 78 7 151 17 135 7 -10 9 -10 8 2 0 8 -4 24 -8 34 -5 14 -11 3 -24 -45z"/> <path d="M1236 1683 c26 -3 31 -8 27 -24 -3 -10 -1 -19 4 -19 5 0 10 11 11 25 2 23 -1 25 -36 23 -35 -1 -35 -1 -6 -5z"/> <path d="M803 1664 c0 -8 16 -18 36 -24 45 -12 51 -12 51 0 0 6 -6 10 -14 10 -8 0 -18 4 -21 10 -4 6 1 7 12 3 10 -3 15 -3 11 2 -14 15 -75 14 -75 -1z"/> <path d="M1011 1618 c1 -24 0 -88 -3 -143 -3 -55 -3 -79 -1 -52 2 26 8 45 12 43 10 -7 22 127 14 165 -9 44 -24 34 -22 -13z"/> <path d="M1064 1648 c-10 -15 -11 -258 -1 -258 4 0 7 3 8 8 3 38 6 262 4 262 -2 0 -7 -5 -11 -12z"/> <path d="M642 1600 c17 -27 35 -50 41 -50 9 0 -5 25 -42 77 -31 43 -30 23 1 -27z"/> <path d="M1250 1610 c0 -17 7 -20 40 -20 38 0 54 -13 28 -23 -7 -3 1 -6 17 -6 27 -1 30 2 31 32 l0 33 -35 -12 c-49 -18 -87 -17 -41 1 l35 13 -37 1 c-32 1 -38 -2 -38 -19z"/> <path d="M1771 1618 c1 -7 1 -20 0 -28 -1 -13 -2 -13 -11 0 -8 12 -10 11 -10 -7 0 -13 5 -22 13 -20 6 1 11 -6 11 -15 -1 -10 4 -18 11 -18 18 0 25 71 9 87 -16 16 -25 16 -23 1z"/> <path d="M705 1604 c22 -17 46 -15 53 4 2 8 -8 12 -35 12 -36 -1 -37 -1 -18 -16z"/> <path d="M1826 1587 c5 -25 3 -29 -6 -17 -9 12 -10 9 -5 -15 5 -29 4 -31 -42 -45 -26 -7 -61 -13 -77 -12 -16 2 -33 -3 -37 -10 -6 -9 -13 -9 -34 0 -24 11 -26 10 -21 -5 3 -10 8 -31 12 -46 3 -15 9 -27 13 -25 3 2 34 14 69 27 38 14 61 29 58 36 -2 7 7 12 25 12 15 0 26 -4 22 -9 -3 -6 8 -3 25 6 29 15 55 52 30 43 -7 -2 -12 -9 -11 -15 2 -6 -4 -9 -11 -6 -12 5 -12 9 0 32 18 35 18 68 -1 75 -11 5 -13 -1 -9 -26z m-2 -85 c3 -5 -8 -9 -25 -9 -19 0 -25 3 -17 9 17 10 35 10 42 0z"/> <path d="M415 1600 c-4 -6 7 -10 27 -9 27 0 30 2 13 9 -27 12 -33 12 -40 0z"/> <path d="M800 1593 c-42 -14 -43 -17 -5 -24 41 -7 62 1 51 20 -8 12 -21 13 -46 4z"/> <path d="M1202 1570 c0 -19 2 -27 5 -17 2 9 2 25 0 35 -3 9 -5 1 -5 -18z"/> <path d="M861 1576 c-8 -10 -8 -16 3 -25 10 -8 16 -9 21 -1 10 15 38 12 32 -4 -7 -17 18 -15 35 2 7 7 17 12 23 12 5 0 3 -5 -5 -10 -13 -8 -12 -10 3 -10 26 0 16 23 -14 30 -65 17 -88 19 -98 6z"/> <path d="M1880 1550 c0 -22 0 -43 0 -47 0 -4 5 -8 12 -9 9 -1 14 14 15 47 1 37 -2 49 -13 49 -10 0 -14 -12 -14 -40z"/> <path d="M385 1570 c-35 -7 -33 -7 22 -7 34 1 59 5 57 9 -6 9 -21 9 -79 -2z"/> <path d="M1920 1556 c0 -45 12 -88 21 -74 14 21 11 70 -3 62 -10 -6 -10 -5 -1 8 7 8 10 18 6 21 -13 14 -23 6 -23 -17z"/> <path d="M1695 1530 c-4 -6 1 -7 11 -3 12 4 15 3 10 -5 -4 -7 -2 -12 6 -12 16 0 47 19 33 21 -5 0 -20 2 -32 5 -12 2 -25 -1 -28 -6z"/> <path d="M1998 1513 c-10 -2 -18 -8 -18 -13 0 -8 57 4 68 15 6 6 -25 5 -50 -2z"/> <path d="M1043 1465 c0 -27 2 -38 4 -22 2 15 2 37 0 50 -2 12 -4 0 -4 -28z"/> <path d="M1332 1501 c-10 -6 -4 -10 18 -15 47 -9 80 -7 80 4 0 6 -12 10 -27 9 -16 -1 -35 1 -43 5 -8 3 -21 2 -28 -3z"/> <path d="M2474 1486 c-8 -22 4 -68 16 -61 13 8 13 62 0 70 -6 3 -13 -1 -16 -9z"/> <path d="M2133 1474 c-20 -21 -15 -27 17 -20 29 5 42 -7 18 -17 -7 -3 4 -6 25 -6 23 -1 36 3 32 9 -3 6 -14 10 -23 10 -15 0 -15 2 -2 11 13 9 13 10 -1 6 -9 -3 -25 0 -35 8 -16 10 -21 10 -31 -1z"/> <path d="M2400 1482 c0 -5 10 -17 22 -28 20 -18 21 -18 15 -1 -4 10 -7 23 -7 28 0 5 -7 9 -15 9 -8 0 -15 -4 -15 -8z"/> <path d="M1815 1465 c-16 -7 -33 -11 -37 -8 -5 2 -8 -1 -8 -7 0 -8 13 -10 41 -5 47 8 79 -13 79 -52 0 -12 3 -23 8 -23 11 1 47 30 36 30 -6 0 -15 -5 -22 -12 -9 -9 -12 -9 -12 -1 0 7 10 15 21 18 17 6 19 9 8 16 -11 7 -11 9 -1 9 7 0 10 5 7 10 -4 7 -13 7 -26 0 -11 -7 -19 -7 -19 -1 0 5 6 12 13 14 6 3 2 6 -10 6 -12 1 -25 6 -28 11 -8 12 -12 12 -50 -5z"/> <path d="M2587 1424 c11 -69 23 -93 17 -34 -3 30 -10 59 -15 64 -5 5 -6 -8 -2 -30z"/> <path d="M1540 1441 c0 -6 8 -15 18 -20 9 -6 11 -11 5 -11 -9 0 -13 -20 -12 -67 0 -53 2 -63 10 -45 5 13 6 28 3 33 -3 5 0 8 8 7 8 -2 12 4 10 16 -2 10 1 16 6 12 5 -3 9 2 9 10 0 8 -6 13 -12 10 -8 -3 -10 4 -7 19 3 16 -2 27 -17 34 -13 7 -21 8 -21 2z"/> <path d="M383 1433 c-14 -3 -20 -9 -16 -19 6 -16 33 -19 33 -4 0 7 6 7 18 1 10 -5 47 -12 82 -16 l65 -6 -30 19 c-30 20 -111 33 -152 25z"/> <path d="M540 1425 c0 -8 5 -15 10 -15 6 0 10 7 10 15 0 8 -4 15 -10 15 -5 0 -10 -7 -10 -15z"/> <path d="M1261 1429 c8 -5 32 -9 54 -10 30 0 35 -2 20 -8 -16 -7 -13 -9 18 -13 20 -2 37 -1 37 3 0 4 2 14 6 22 4 11 -9 14 -72 15 -48 0 -72 -3 -63 -9z"/> <path d="M290 1413 c-48 -8 -53 -12 -40 -28 10 -13 9 -15 -10 -15 -13 0 -21 -3 -18 -6 3 -3 23 -2 44 2 33 6 36 8 19 16 -13 5 -8 6 15 2 19 -4 46 -13 60 -21 16 -9 18 -12 5 -8 -49 17 -57 15 -25 -5 35 -23 35 -23 12 -33 -22 -10 -25 -28 -5 -34 6 -2 18 12 27 32 15 30 22 35 54 36 20 0 57 4 82 9 35 7 28 8 -30 3 -65 -5 -73 -4 -62 10 10 12 8 15 -13 15 -20 0 -23 -3 -14 -14 10 -12 6 -12 -22 0 -60 24 -64 26 -42 22 27 -5 40 9 17 18 -9 3 -19 5 -22 5 -4 -1 -18 -4 -32 -6z"/> <path d="M1420 1405 c0 -8 -9 -23 -19 -32 -11 -9 -17 -21 -15 -27 10 -28 -163 -346 -226 -416 -12 -14 -28 -38 -35 -53 -6 -16 -16 -29 -21 -29 -5 0 -17 -6 -27 -13 -16 -11 -17 -20 -7 -96 12 -98 13 -189 3 -189 -5 0 -7 30 -7 67 2 70 -2 53 -12 -54 -4 -51 -9 -62 -27 -67 -12 -3 -19 -8 -15 -11 10 -10 131 28 168 52 35 23 35 32 -1 13 -13 -8 -19 -7 -19 0 0 6 14 16 30 21 22 8 30 17 30 35 0 17 5 24 16 22 9 -2 21 6 28 17 6 11 14 22 17 25 11 10 25 49 28 78 0 7 6 10 11 7 6 -3 10 5 10 19 0 15 11 33 27 45 32 26 40 21 20 -11 -8 -12 -18 -34 -21 -48 -6 -23 -6 -23 9 3 19 32 33 30 15 -2 -6 -12 -8 -21 -6 -21 3 0 13 14 22 31 8 17 11 28 5 25 -6 -4 -11 -3 -11 3 0 5 4 12 9 16 15 9 22 -30 11 -60 -6 -15 -8 -42 -4 -59 4 -23 1 -36 -10 -45 -12 -10 -16 -29 -14 -70 1 -45 2 -48 5 -16 5 51 23 90 35 73 4 -8 8 7 8 35 0 26 5 47 10 47 6 0 10 8 11 18 1 9 5 1 9 -18 5 -20 5 -37 -1 -41 -5 -3 -15 -31 -21 -63 -10 -47 -10 -59 1 -66 16 -9 38 28 68 114 l18 51 3 -36 c2 -24 -9 -68 -33 -129 -42 -107 -42 -136 -1 -55 33 65 43 67 21 5 -17 -49 -19 -64 -6 -55 5 3 11 0 14 -7 2 -7 2 -3 0 10 -2 13 17 72 42 132 26 60 44 114 41 119 -6 9 -11 44 -37 253 -10 89 -13 97 -30 88 -27 -15 -28 -13 -7 29 22 45 12 86 -19 74 -14 -6 -14 -8 5 -16 23 -11 30 -29 10 -24 -7 1 -13 -5 -14 -13 -1 -14 -11 -45 -22 -64 -3 -5 0 -6 6 -2 7 4 12 2 12 -5 0 -7 3 -9 7 -6 3 4 15 -7 25 -23 22 -37 22 -41 2 -33 -13 5 -15 2 -9 -15 6 -20 3 -22 -35 -22 -34 0 -41 3 -38 18 2 10 12 17 27 17 13 0 26 6 29 14 4 11 -2 13 -27 8 -18 -4 -31 -2 -31 3 0 6 5 10 10 10 18 0 10 18 -10 23 -15 4 -20 14 -20 36 0 24 -4 31 -19 31 -24 0 -37 35 -21 55 7 9 8 15 0 20 -11 7 -3 52 12 72 6 7 8 20 4 28 -3 8 -1 15 5 15 7 0 9 9 5 23 -3 12 -9 33 -12 46 -4 14 -3 22 2 19 5 -3 10 9 11 28 1 19 0 34 -3 34 -2 0 -4 -7 -4 -15z m-49 -247 c2 -43 10 -72 22 -87 24 -27 57 -99 57 -124 0 -31 18 -47 51 -47 15 0 30 -4 33 -8 3 -5 8 -45 12 -89 l7 -80 -30 -1 c-22 0 -36 7 -52 28 -11 16 -21 34 -21 39 0 5 -12 23 -26 40 -37 44 -64 40 -112 -14 -37 -43 -40 -44 -46 -23 -3 13 -6 39 -6 59 0 43 -21 75 -44 66 -22 -9 -20 6 4 34 15 18 19 20 20 8 0 -9 9 -24 20 -34 16 -15 22 -15 35 -5 27 23 12 70 -23 70 -10 0 -10 -3 2 -16 9 -8 16 -22 16 -30 0 -26 -16 -15 -28 20 -12 32 -10 38 23 93 19 32 35 62 35 67 0 12 31 46 42 46 4 0 8 -6 9 -12z m-140 -270 c4 -49 6 -131 2 -121 -2 7 -10 10 -17 7 -9 -3 -15 5 -18 25 -3 17 0 31 5 31 5 0 6 12 3 26 -5 19 -4 24 5 18 9 -5 10 -2 6 9 -3 10 -2 17 3 17 6 0 10 -6 11 -12z m-133 -109 c3 52 11 33 13 -29 0 -30 6 -70 12 -87 8 -25 8 -36 -1 -45 -7 -7 -12 -19 -12 -28 1 -11 4 -10 12 5 6 11 17 23 23 27 7 4 10 19 8 33 -3 13 -9 22 -14 19 -5 -3 -8 21 -7 53 l1 58 7 -45 7 -45 1 60 2 60 19 -35 c19 -36 40 -177 23 -152 -7 11 -11 10 -17 -5 -5 -10 -7 -24 -6 -32 2 -9 -4 -12 -18 -8 -12 3 -19 1 -15 -4 3 -5 0 -9 -5 -9 -6 0 -11 -6 -11 -13 0 -8 -7 -14 -15 -14 -12 0 -15 16 -16 76 0 42 -4 103 -8 136 -5 33 -5 65 -2 70 3 6 9 -10 12 -35 5 -40 6 -41 7 -11z m161 -57 c-11 -32 -29 -35 -29 -5 0 14 31 46 38 39 1 -2 -3 -17 -9 -34z m-148 -192 c6 0 8 -4 5 -8 -3 -5 -15 -8 -28 -6 -31 3 -30 3 -23 15 4 6 14 8 22 5 8 -3 19 -6 24 -6z"/> <path d="M2125 1390 c20 -21 36 -28 52 -26 12 3 25 0 29 -5 3 -6 13 -8 21 -5 10 4 13 2 10 -8 -5 -13 -2 -13 19 -4 21 10 22 13 9 20 -8 5 -23 8 -33 7 -9 -1 -25 1 -35 6 -10 4 -20 5 -23 2 -3 -3 -16 6 -29 19 -35 35 -54 29 -20 -6z"/> <path d="M2066 1399 c19 -31 48 -58 56 -53 11 7 -17 41 -46 56 -14 8 -17 7 -10 -3z"/> <path d="M2220 1390 c0 -5 10 -10 23 -10 18 0 19 2 7 10 -19 13 -30 13 -30 0z"/> <path d="M1213 1383 c26 -2 68 -2 95 0 26 2 4 3 -48 3 -52 0 -74 -1 -47 -3z"/> <path d="M569 1371 c10 -6 4 -11 -20 -16 -32 -7 -33 -8 -11 -16 16 -6 28 -4 42 8 21 18 18 33 -8 33 -14 0 -14 -2 -3 -9z"/> <path d="M1915 1360 c-11 -4 -24 -6 -30 -5 -5 1 -7 0 -2 -2 4 -3 5 -9 2 -14 -4 -5 1 -6 10 -3 14 6 15 1 10 -30 l-7 -37 46 28 c54 32 63 52 11 23 -52 -29 -55 -24 -10 15 22 19 35 35 28 35 -6 0 -15 -5 -19 -11 -4 -7 -9 -7 -13 -1 -3 5 -15 6 -26 2z"/> <path d="M300 1345 c29 -17 22 -19 -15 -5 -15 6 -38 7 -53 3 -24 -6 -25 -7 -7 -14 16 -6 17 -8 3 -8 -9 -1 -20 -6 -24 -12 -4 -8 1 -9 17 -5 18 4 16 2 -6 -9 -41 -19 -20 -19 33 2 30 11 39 19 30 24 -21 14 9 11 34 -2 16 -9 19 -8 13 2 -6 9 -3 11 11 6 15 -6 14 -3 -5 13 -13 11 -31 20 -40 20 -11 -1 -8 -5 9 -15z"/> <path d="M1630 1330 c0 -29 -13 -40 -25 -20 -13 21 -24 9 -15 -16 6 -14 10 -35 10 -47 -1 -22 -1 -22 -21 3 l-20 24 6 -114 c4 -63 8 -117 10 -120 2 -3 6 -30 10 -59 3 -30 11 -63 18 -75 6 -12 10 -24 9 -28 -1 -4 5 -5 13 -2 10 4 13 0 10 -15 -2 -12 -6 -25 -10 -30 -3 -5 3 -16 12 -23 12 -8 18 -25 18 -46 -1 -18 5 -38 14 -45 12 -10 13 -9 7 2 -6 9 -4 12 5 9 14 -5 19 -25 11 -41 -2 -5 -14 0 -25 10 -35 29 61 -76 106 -116 l40 -36 -16 31 c-9 17 -13 34 -10 38 4 3 2 6 -3 7 -32 2 -50 11 -73 33 -14 14 -21 26 -15 26 6 0 21 -11 34 -25 12 -13 27 -22 32 -19 5 3 15 0 23 -6 12 -10 15 -10 15 1 0 10 3 9 13 -2 6 -8 21 -21 32 -29 15 -11 14 -8 -4 13 -16 18 -20 27 -11 27 11 0 11 3 2 12 -7 7 -12 18 -12 25 0 17 18 8 90 -46 53 -40 86 -50 39 -12 l-24 19 30 -5 c23 -4 17 2 -27 26 -31 17 -72 32 -90 33 -33 2 -94 35 -84 46 3 2 13 -1 22 -9 9 -7 39 -14 68 -15 93 -3 90 -3 77 -18 -9 -11 -2 -16 34 -26 52 -14 73 -6 29 11 -20 8 -24 13 -15 17 8 3 25 14 37 26 12 12 30 27 40 34 17 11 17 12 -6 6 -14 -4 -37 -15 -52 -25 -29 -21 -58 -25 -58 -8 0 6 6 9 14 6 18 -7 90 68 91 95 0 33 21 32 41 -1 10 -16 21 -28 26 -25 4 3 34 -22 67 -56 33 -33 68 -60 78 -60 16 1 15 3 -6 21 -33 27 -21 35 13 8 42 -33 41 -16 -1 22 -21 18 -37 36 -36 40 3 8 -56 54 -69 54 -21 0 -17 16 7 25 22 8 33 7 51 -5 13 -8 29 -15 36 -15 7 0 1 8 -14 18 -16 9 -28 20 -28 25 0 5 14 -1 30 -13 34 -24 36 -32 15 -50 -12 -10 -19 -10 -27 -2 -7 7 -8 12 -3 12 5 0 -1 7 -13 16 -48 33 -35 0 18 -46 57 -50 110 -78 75 -40 -28 30 2 35 40 5 19 -14 35 -22 35 -18 0 5 -18 19 -39 33 -22 13 -37 28 -35 32 3 4 -2 11 -10 14 -9 3 -16 14 -16 24 0 17 -54 47 -76 42 -6 -1 -17 4 -23 12 -20 24 41 16 72 -10 16 -13 33 -24 38 -24 6 0 7 -4 4 -10 -4 -6 1 -7 11 -3 10 4 15 2 11 -4 -3 -5 14 -19 39 -31 48 -23 69 -29 44 -11 -12 9 -11 10 5 6 11 -3 29 -8 39 -13 14 -5 17 -4 12 4 -4 7 -2 12 6 12 17 1 -8 15 -42 24 -19 6 -21 5 -10 -3 17 -12 1 -15 -25 -5 -13 6 -14 9 -3 16 14 11 5 9 -37 -8 -18 -7 -19 -6 -5 11 9 11 10 16 3 11 -7 -4 -23 0 -35 8 -30 21 -18 20 96 -9 54 -15 103 -24 110 -21 6 2 3 5 -7 5 -11 1 -15 6 -11 12 5 9 -1 10 -20 5 -20 -5 -26 -3 -21 5 5 7 24 9 54 5 36 -4 42 -3 28 5 -11 7 -42 9 -75 5 -41 -4 -51 -3 -37 4 16 8 12 9 -16 5 -27 -4 -38 -2 -43 10 -3 8 -14 15 -24 15 -10 0 -27 7 -38 15 -18 14 -17 14 14 9 22 -5 32 -3 32 6 0 7 7 10 15 7 17 -7 49 35 83 106 30 66 29 79 -5 71 -16 -4 -37 -11 -48 -16 -18 -8 -18 -8 3 -4 13 2 20 0 16 -6 -4 -6 -21 -8 -40 -5 -23 4 -37 1 -46 -10 -12 -15 -9 -16 24 -10 22 3 40 1 44 -4 4 -7 -12 -10 -42 -8 -32 1 -61 -4 -83 -15 -109 -57 -205 -69 -272 -36 l-40 21 21 29 c12 17 25 30 30 30 10 0 124 117 129 133 2 7 -23 -14 -57 -45 -33 -32 -64 -58 -69 -58 -4 0 18 25 51 56 32 30 56 57 53 61 -7 6 -49 -24 -104 -74 -50 -46 -65 -41 -20 5 20 21 37 41 37 45 0 3 20 25 45 48 25 23 43 44 41 47 -3 2 -25 -10 -50 -27 -25 -16 -56 -36 -68 -42 -21 -11 -22 -11 -9 4 7 10 10 17 6 17 -5 0 13 14 39 31 70 47 48 47 -37 0 -76 -42 -101 -44 -110 -10 -6 22 -27 26 -27 4 0 -8 -4 -15 -10 -15 -5 0 -10 5 -10 11 0 14 -32 53 -46 56 -6 1 -8 -13 -6 -32 3 -23 9 -34 21 -34 41 -1 76 -11 87 -25 6 -9 23 -16 37 -16 26 0 45 -16 33 -28 -4 -3 -23 -5 -44 -5 -38 1 -82 -27 -82 -53 0 -6 -11 -15 -26 -18 -14 -4 -34 -22 -46 -41 -23 -40 -28 -42 -50 -16 -9 11 -37 31 -62 46 -52 30 -58 54 -31 119 12 29 20 36 34 31 15 -5 19 2 24 37 7 55 0 63 -9 10 -4 -23 -10 -39 -15 -37 -4 3 -5 21 -2 40 4 23 2 35 -6 35 -6 0 -11 -13 -11 -30z m251 -160 c-13 -11 -28 -20 -35 -20 -6 0 0 9 14 20 33 26 52 25 21 0z m56 -8 c-15 -16 -25 -31 -21 -34 3 -3 0 -9 -7 -14 -8 -5 -10 -3 -4 6 6 9 2 10 -16 5 -19 -6 -16 0 16 28 48 43 70 49 32 9z m-279 -74 c59 -40 56 -37 49 -44 -6 -6 -107 62 -107 72 0 9 13 3 58 -28z m162 12 c0 -11 -8 -28 -17 -37 -10 -10 -18 -24 -18 -32 0 -8 -6 -16 -12 -18 -23 -8 -12 23 34 100 8 13 13 8 13 -13z m132 -15 c7 -34 -7 -41 -39 -19 -25 16 -26 17 -8 30 28 21 42 17 47 -11z m-115 -25 c-6 -16 -15 -30 -19 -30 -11 0 -10 4 4 35 16 35 29 31 15 -5z m-128 -35 c25 8 37 -26 19 -54 -9 -16 -10 -23 -1 -32 9 -9 8 -15 -4 -27 -10 -10 -13 -25 -9 -44 3 -15 2 -28 -3 -28 -4 0 -8 -6 -8 -14 0 -8 5 -12 11 -10 6 2 22 -6 36 -17 14 -11 19 -18 13 -14 -28 14 -11 -5 23 -25 47 -30 37 -37 -12 -9 -62 36 -111 77 -111 93 0 8 4 13 9 10 5 -3 -5 21 -22 53 -26 50 -37 102 -31 146 0 5 17 -1 36 -13 21 -13 42 -19 54 -15z m184 -12 c12 -45 12 -45 18 -17 4 17 8 -12 10 -71 l3 -100 6 90 c5 80 6 85 13 50 5 -22 12 -50 17 -61 5 -12 6 -33 3 -45 -6 -23 -6 -23 11 -7 13 14 16 28 12 65 l-5 48 13 -40 c10 -31 14 -36 18 -20 4 17 6 16 13 -8 5 -21 3 -33 -10 -47 -10 -11 -22 -17 -28 -13 -5 3 -7 2 -4 -4 11 -17 -82 -93 -113 -93 -8 0 -37 20 -64 45 -47 43 -53 60 -11 32 51 -35 75 -49 75 -43 0 3 -19 18 -42 32 -24 15 -51 35 -60 45 -10 10 -26 22 -35 28 -10 5 -15 12 -12 15 3 3 21 -5 41 -19 39 -26 58 -22 31 7 -9 10 -12 18 -8 18 5 0 -6 13 -25 30 -36 32 -36 52 0 27 29 -20 55 -57 40 -57 -6 0 -8 -4 -5 -10 10 -16 35 -12 29 5 -5 11 -2 13 11 8 16 -5 17 -2 12 25 -7 35 11 132 25 132 4 0 14 -21 21 -47z m473 37 c8 0 14 -3 14 -7 0 -5 -28 -6 -62 -4 -46 2 -58 6 -43 12 11 5 33 6 49 4 16 -3 35 -5 42 -5z m-52 -39 c-5 -5 -22 -7 -39 -3 l-30 6 35 6 c39 7 48 4 34 -9z m-40 -36 c11 -8 15 -15 9 -15 -19 0 -43 12 -43 21 0 13 12 11 34 -6z m-99 -15 c-3 -5 -13 -10 -21 -10 -8 0 -12 5 -9 10 3 6 13 10 21 10 8 0 12 -4 9 -10z m-85 -8 c0 -5 -7 -17 -15 -28 -15 -19 -15 -19 -30 0 -22 29 -19 36 15 36 17 0 30 -4 30 -8z m157 -24 c27 -17 33 -24 21 -26 -18 -3 -67 26 -68 41 0 11 5 9 47 -15z m-113 -14 c21 -21 20 -24 -9 -24 -18 0 -25 5 -25 20 0 24 13 26 34 4z m146 -128 c-6 -5 -15 -4 -25 4 -12 10 -13 16 -4 26 10 12 14 11 25 -3 7 -11 9 -22 4 -27z"/> <path d="M1876 950 c-4 -30 -10 -66 -13 -80 -3 -14 -3 -22 1 -19 4 3 11 26 16 50 9 42 9 41 5 -16 -3 -41 -1 -52 4 -35 11 30 12 96 2 130 -6 21 -9 15 -15 -30z"/> <path d="M1740 1350 c-1 -3 -4 -20 -6 -37 -4 -25 -1 -33 10 -33 9 0 16 8 15 18 0 18 -16 61 -19 52z"/> <path d="M2177 1325 c10 -13 23 -23 29 -20 14 4 9 -25 -12 -72 -10 -23 -13 -48 -8 -83 4 -28 9 -48 13 -45 6 6 7 10 10 36 0 5 6 7 11 4 6 -3 10 4 10 16 0 18 -3 20 -12 11 -15 -15 -28 -15 -28 -1 0 5 4 8 8 5 5 -3 14 10 20 29 5 19 6 35 1 35 -4 0 -6 7 -3 15 4 8 10 13 14 10 17 -11 -5 41 -25 60 -33 29 -49 30 -28 0z"/> <path d="M448 1333 c-37 -6 -58 -38 -59 -93 -1 -39 -2 -41 -8 -15 -6 29 -7 27 -25 -27 -10 -32 -22 -60 -27 -64 -5 -3 -8 -22 -8 -42 1 -24 3 -29 6 -14 7 35 33 8 33 -33 0 -20 6 -35 15 -39 12 -4 15 7 16 64 2 83 2 86 10 95 4 3 5 27 3 53 -3 39 -2 42 5 17 5 -16 9 -54 10 -83 1 -34 5 -51 11 -47 6 4 9 25 6 48 -15 120 -16 167 -6 167 5 0 10 -11 10 -24 0 -20 4 -23 21 -19 15 4 20 12 16 29 -3 15 1 25 12 27 21 6 -3 6 -41 0z"/> <path d="M2138 1310 c2 -17 9 -33 14 -36 5 -3 4 -12 -3 -20 -10 -12 -9 -13 4 -8 18 6 30 32 21 45 -3 5 -10 7 -15 4 -5 -4 -9 5 -9 19 0 14 -4 26 -8 26 -5 0 -7 -14 -4 -30z"/> <path d="M1138 1313 c18 -2 45 -2 60 0 15 2 0 4 -33 4 -33 0 -45 -2 -27 -4z"/> <path d="M1310 1310 c20 -5 39 -5 45 1 5 5 -8 9 -35 8 l-45 -1 35 -8z"/> <path d="M300 1303 c0 -6 -6 -10 -12 -9 -7 0 -34 -8 -60 -19 -39 -17 -46 -23 -43 -45 1 -14 -3 -28 -9 -32 -6 -4 5 -5 24 -2 71 11 83 10 86 -9 1 -9 -1 -15 -5 -13 -4 3 -13 1 -21 -4 -9 -5 -19 -5 -27 1 -14 12 -36 2 -27 -12 3 -5 13 -8 22 -7 10 2 16 -3 14 -10 -2 -9 8 -6 28 8 17 12 28 26 25 31 -4 5 -1 9 6 9 8 0 8 4 -1 16 -8 8 -9 14 -4 13 21 -4 35 2 29 11 -4 6 -18 4 -37 -6 -16 -9 -27 -11 -24 -6 4 6 1 14 -5 18 -8 4 -9 3 -5 -4 7 -12 -5 -16 -33 -13 -7 2 -10 -2 -6 -8 4 -7 0 -8 -11 -4 -11 4 -13 8 -6 11 7 2 10 8 7 13 -4 5 2 6 12 2 16 -6 17 -5 3 13 -11 15 -11 16 0 7 21 -19 35 -16 19 4 -9 11 -2 9 21 -7 l35 -24 -25 30 c-14 16 -18 23 -10 17 8 -7 18 -13 23 -13 5 0 5 6 -1 13 -8 9 -4 12 14 13 28 2 32 -11 7 -25 -21 -11 -13 -24 10 -15 25 9 27 31 6 50 -10 9 -19 12 -19 7z"/> <path d="M1695 1297 c-8 -19 -2 -31 13 -26 5 2 6 13 2 24 -7 19 -8 19 -15 2z"/> <path d="M1140 1288 c14 -5 57 -7 95 -4 44 4 64 2 55 -3 -9 -5 -65 -14 -125 -19 -62 -5 -90 -10 -65 -11 134 -7 185 -36 55 -32 -44 1 -77 0 -75 -3 3 -2 36 -6 73 -7 37 -1 70 -5 72 -9 2 -3 -47 -12 -108 -19 -62 -6 -116 -16 -121 -22 -12 -11 -66 -12 -66 -1 0 4 -14 23 -31 42 -19 22 -28 27 -24 15 4 -11 13 -42 21 -70 16 -60 38 -122 47 -131 17 -17 4 -34 -35 -43 -42 -10 -42 -10 17 -6 71 5 63 0 -31 -20 l-69 -15 70 4 c69 4 159 32 150 46 -3 5 -14 6 -24 3 -19 -5 -39 21 -55 73 -6 19 -2 23 31 29 21 3 67 7 101 8 57 2 66 5 89 31 18 21 38 32 66 35 22 4 42 12 45 20 3 10 -3 12 -29 6 -32 -7 -33 -6 -14 9 11 8 27 16 36 16 46 1 28 40 -20 41 l-36 1 45 9 c111 22 84 39 -60 38 -79 -1 -99 -4 -80 -11z m33 -142 c7 -17 -45 -32 -65 -19 -7 4 -21 6 -30 5 -10 -2 -18 1 -18 7 0 5 19 12 43 14 23 2 47 4 53 5 7 1 14 -4 17 -12z m-138 -6 c17 -8 16 -9 -9 -9 -24 -1 -27 -3 -16 -16 7 -8 10 -15 7 -15 -9 0 -62 30 -54 31 4 1 11 2 16 3 5 0 13 4 17 9 9 8 13 8 39 -3z"/> <path d="M2271 1269 c14 -13 25 -31 24 -40 -2 -9 1 -23 6 -30 8 -11 9 -9 7 6 -2 11 2 19 8 18 18 -3 4 45 -14 50 -10 3 -26 8 -37 12 -16 6 -15 3 6 -16z"/> <path d="M828 1250 c2 -17 9 -33 15 -37 6 -4 7 4 3 23 -10 41 -24 51 -18 14z"/> <path d="M2253 1234 c-6 -16 22 -53 32 -42 10 9 -7 38 -18 31 -6 -4 -8 0 -4 10 3 10 4 17 1 17 -2 0 -7 -7 -11 -16z"/> <path d="M1726 1189 c-11 -16 -12 -27 -5 -41 13 -24 31 -23 55 3 14 15 16 24 8 37 -16 25 -40 26 -58 1z m44 -8 c0 -13 -29 -35 -37 -28 -7 8 15 37 28 37 5 0 9 -4 9 -9z"/> <path d="M2140 1195 c-7 -8 -16 -13 -20 -10 -5 3 -19 -9 -31 -27 -20 -29 -20 -31 -3 -15 12 9 23 15 26 12 2 -3 15 6 28 20 13 14 21 27 18 30 -3 3 -11 -1 -18 -10z"/> <path d="M235 1190 c-9 -15 11 -20 29 -7 16 12 16 13 -3 14 -11 1 -23 -2 -26 -7z"/> <path d="M2380 1165 c-14 -8 -20 -14 -15 -14 6 0 21 6 35 14 14 8 21 14 15 14 -5 0 -21 -6 -35 -14z"/> <path d="M830 1142 c0 -5 7 -15 15 -22 8 -7 15 -8 15 -2 0 5 -7 15 -15 22 -8 7 -15 8 -15 2z"/> <path d="M1217 1116 c-11 -68 -124 -190 -146 -158 -3 4 -26 1 -50 -8 l-44 -17 48 -6 c83 -12 96 -9 132 30 19 20 39 46 44 57 5 12 22 39 38 61 21 28 26 42 18 47 -8 5 -6 8 6 8 9 0 17 5 17 10 0 6 -13 10 -29 10 -25 0 -29 -4 -34 -34z"/> <path d="M2498 1125 c-6 -13 -14 -22 -19 -20 -4 3 -11 0 -15 -6 -4 -8 -3 -9 4 -5 22 13 12 -11 -10 -26 -17 -11 -18 -16 -7 -20 23 -9 55 24 63 65 8 43 1 48 -16 12z"/> <path d="M834 1061 c4 -6 22 -18 39 -27 30 -14 31 -14 12 1 -30 25 -59 39 -51 26z"/> <path d="M2487 1004 c-27 -14 -47 -28 -44 -30 6 -6 95 35 103 47 9 14 -8 10 -59 -17z"/> <path d="M2425 953 c-11 -3 -24 -9 -29 -14 -6 -5 -19 -9 -30 -9 -10 0 -16 -3 -12 -7 10 -11 186 -30 186 -21 0 4 -10 13 -22 19 l-22 12 24 9 c13 5 29 7 35 4 7 -2 18 0 26 5 23 14 -40 11 -85 -5 -31 -11 -36 -15 -20 -19 13 -3 9 -5 -11 -6 l-30 0 24 19 c20 17 21 20 5 19 -11 -1 -28 -3 -39 -6z"/> <path d="M830 902 c-46 -7 -125 -31 -105 -32 20 -1 20 -1 0 -9 -15 -6 -9 -10 29 -15 37 -6 46 -10 35 -18 -10 -7 -4 -8 21 -4 19 3 49 8 65 11 29 5 29 5 -2 -5 -18 -6 -33 -13 -33 -16 0 -3 15 -3 33 1 l32 7 -23 -17 c-23 -17 -29 -16 -130 10 -59 15 -113 30 -121 33 -9 3 -12 1 -8 -5 4 -6 31 -17 59 -23 29 -7 61 -17 71 -22 10 -5 35 -11 55 -13 20 -2 48 -5 62 -8 14 -2 19 -2 12 0 -28 9 27 35 58 28 19 -4 30 -3 30 4 0 7 10 9 25 5 33 -8 32 4 -2 17 -18 7 -30 6 -37 -1 -5 -5 -19 -10 -30 -9 -12 0 -15 3 -8 6 21 8 13 22 -15 26 -16 2 -7 3 19 0 25 -2 49 1 53 7 3 5 20 10 37 10 37 0 33 -9 -5 -12 -32 -3 -23 -13 18 -22 20 -4 25 -3 16 3 -11 7 -9 10 8 16 12 3 19 11 16 16 -4 5 0 9 7 9 7 0 0 7 -17 16 -27 14 -142 17 -225 6z m10 -42 c22 -7 21 -8 -12 -9 -20 -1 -40 4 -43 9 -7 12 19 12 55 0z"/> <path d="M410 854 c0 -15 66 -84 80 -84 18 0 43 -23 35 -32 -3 -2 1 -5 8 -6 6 -1 26 -4 42 -8 l30 -6 -30 27 c-16 14 -23 23 -15 19 8 -4 25 -16 38 -28 20 -18 36 -21 128 -21 122 0 115 8 -43 46 -51 13 -93 26 -93 30 0 4 -10 5 -22 2 -19 -4 -20 -3 -8 6 13 9 12 11 -5 11 -11 0 -44 11 -73 25 -54 25 -72 30 -72 19z m259 -100 c10 -9 -55 -3 -69 6 -10 6 -2 7 25 3 22 -3 42 -7 44 -9z"/> <path d="M1037 803 c-5 -7 -3 -21 3 -32 5 -11 11 -32 11 -48 1 -19 3 -22 6 -8 6 29 -11 102 -20 88z"/> <path d="M685 790 c11 -5 27 -9 35 -9 9 0 8 4 -5 9 -11 5 -27 9 -35 9 -9 0 -8 -4 5 -9z"/> <path d="M755 771 c31 -13 93 -24 75 -12 -8 5 -33 12 -55 15 -27 4 -34 4 -20 -3z"/> <path d="M990 761 c0 -11 5 -23 10 -26 6 -3 10 2 10 11 0 10 2 15 6 12 4 -5 -17 -137 -33 -207 -5 -21 -4 -23 8 -11 9 8 14 27 12 44 -2 29 -2 29 6 6 6 -21 9 -14 16 40 9 65 9 65 16 25 5 -25 6 -13 2 29 -3 38 -7 75 -10 83 -8 21 -43 16 -43 -6z"/> <path d="M974 738 c3 -14 9 -34 12 -45 4 -13 3 -14 -3 -5 -7 9 -15 -7 -28 -55 -10 -37 -20 -74 -23 -82 -3 -9 -1 -12 5 -8 6 4 13 2 15 -5 3 -7 15 28 27 79 21 86 22 93 6 119 l-16 29 5 -27z"/> <path d="M925 721 c-3 -12 -11 -18 -17 -15 -8 5 -9 1 -5 -9 4 -10 10 -25 13 -34 5 -15 4 -16 -6 -3 -9 12 -10 10 -5 -10 4 -17 3 -21 -3 -11 -8 11 -11 11 -16 0 -3 -8 -4 -3 -1 11 3 14 -8 -2 -25 -35 -19 -38 -26 -63 -20 -69 14 -14 21 -3 24 38 2 20 7 40 11 44 4 4 4 -4 1 -18 -6 -20 -5 -22 4 -10 9 12 10 11 5 -7 -11 -38 4 -26 21 17 9 23 19 39 22 36 2 -3 -3 -24 -13 -48 -9 -24 -12 -38 -7 -33 18 19 52 124 45 141 -4 12 -3 15 5 10 7 -4 12 -3 12 3 0 5 -4 13 -10 16 -5 3 -10 0 -10 -7 0 -10 -2 -10 -9 1 -7 11 -10 9 -16 -8z m18 -51 l-6 -24 -8 22 c-5 12 -6 29 -2 38 9 25 24 -7 16 -36z"/> <path d="M849 690 c-36 -19 -96 -87 -91 -104 1 -4 -3 -14 -9 -22 -7 -8 -9 -17 -6 -20 3 -3 26 27 51 66 26 39 51 68 56 65 6 -3 10 -8 10 -11 0 -3 -4 -2 -10 1 -10 6 -14 -7 -11 -34 2 -7 -2 -10 -8 -6 -7 4 -8 0 -4 -11 4 -11 3 -15 -4 -11 -12 8 -59 -60 -49 -70 3 -4 6 -1 6 5 0 7 5 11 11 10 6 -2 29 30 52 69 27 49 44 69 49 60 4 -6 8 -7 8 -2 0 28 -16 33 -51 15z"/> <path d="M695 665 c-16 -8 -49 -36 -72 -62 -47 -52 -60 -86 -14 -38 15 17 35 35 43 40 61 41 88 61 88 68 0 11 -12 9 -45 -8z"/> <path d="M1603 643 c-3 -10 -12 -33 -20 -52 -7 -19 -11 -36 -8 -39 3 -3 5 0 5 6 0 6 7 9 15 6 16 -6 17 -2 19 58 1 42 -2 47 -11 21z"/> <path d="M1650 656 c0 -12 59 -78 87 -97 13 -9 44 -35 68 -58 42 -39 64 -53 49 -30 -3 6 5 3 20 -6 15 -10 29 -16 31 -13 6 6 -101 87 -124 95 -9 3 -42 31 -73 62 -32 30 -58 52 -58 47z"/> <path d="M1030 573 c-3 -23 -2 -39 3 -34 5 5 7 24 5 42 -3 33 -4 33 -8 -8z"/> <path d="M1740 520 c35 -24 54 -31 30 -11 -14 11 -29 21 -35 21 -5 0 -3 -5 5 -10z"/> <path d="M1545 500 c-4 -12 -5 -24 -2 -27 3 -2 8 5 12 17 4 12 5 24 2 27 -3 2 -8 -5 -12 -17z"/> <path d="M1744 491 c4 -6 22 -18 39 -27 30 -14 31 -14 12 1 -30 25 -59 39 -51 26z"/> <path d="M1065 478 c-22 -5 -74 -18 -115 -28 -48 -13 -90 -17 -115 -13 -34 5 -38 3 -27 -8 24 -25 157 -17 235 15 37 16 67 32 67 37 0 5 -1 9 -2 8 -2 -1 -21 -5 -43 -11z"/> <path d="M1556 449 l-17 -34 21 24 c22 26 24 24 10 -13 -6 -17 -6 -26 0 -26 15 0 23 46 12 66 -8 15 -12 13 -26 -17z"/> <path d="M1631 429 c-6 -18 -11 -37 -10 -43 0 -6 7 7 15 28 8 22 12 41 10 43 -2 2 -9 -10 -15 -28z"/> <path d="M1682 354 c-11 -41 -24 -132 -16 -101 10 33 23 17 29 -38 9 -69 18 -62 26 18 l6 62 2 -65 c1 -36 6 -72 12 -80 7 -11 8 2 4 45 -12 127 -16 149 -26 134 -6 -10 -9 -8 -9 11 0 14 -4 31 -9 39 -7 11 -12 4 -19 -25z m19 -53 c6 9 8 -1 7 -31 0 -27 -3 -35 -5 -20 -3 14 -9 29 -14 35 -5 5 -8 18 -8 30 1 17 2 16 6 -4 4 -19 7 -21 14 -10z"/> <path d="M1920 230 c33 -23 50 -30 50 -22 0 5 -11 14 -25 20 -32 15 -45 15 -25 2z"/> <path d="M1850 169 c7 -11 14 -19 16 -16 7 7 -7 37 -17 37 -6 0 -5 -9 1 -21z"/> <path d="M1940 182 c0 -9 50 -35 56 -29 2 2 -10 11 -26 21 -17 9 -30 13 -30 8z"/> <path d="M1807 143 c-15 -8 -24 -19 -21 -25 4 -6 10 -5 15 3 7 12 9 12 9 0 0 -8 3 -11 7 -8 3 4 12 2 20 -4 10 -9 13 -8 13 5 0 9 -4 16 -10 16 -5 0 -7 7 -4 15 7 17 8 17 -29 -2z"/> <path d="M1960 135 c0 -6 56 -35 67 -35 4 0 -5 9 -22 20 -29 19 -45 25 -45 15z"/> </g> </svg> 